<svg width="111" height="150" viewBox="0 0 111 150" fill="none" xmlns="http://www.w3.org/2000/svg">
<path fill-rule="evenodd" clip-rule="evenodd" d="M59.0249 0.676791C58.8789 0.727786 57.764 1.18466 56.5474 1.69183C52.3513 3.44116 50.794 4.08061 50.1765 4.30739C49.8359 4.4327 47.6857 5.28936 45.3984 6.21128C37.4165 9.42817 30.4322 12.1765 28.7792 12.7509C27.6415 13.1461 26.9322 13.508 26.5411 13.8926C26.2263 14.2024 25.3989 15.4991 24.7026 16.7741C24.0064 18.0492 22.8848 19.9931 22.21 21.094C19.6981 25.1924 18.1963 27.5895 16.8563 29.64C16.0987 30.7993 15.3134 32.0723 15.1109 32.4689C14.9085 32.8656 14.0949 34.1951 13.303 35.4232C10.3151 40.0568 8.94305 42.3474 8.94305 42.7019C8.94305 43.4342 9.9838 43.6079 11.3334 43.101C11.7634 42.9395 12.2249 42.8488 12.3591 42.8995C12.6105 42.9943 18.0767 49.107 18.5636 49.8378C18.7412 50.1045 18.824 50.5838 18.8007 51.2112C18.757 52.3843 19.1178 53.0143 20.0565 53.4042C20.4168 53.5537 20.9038 53.766 21.1388 53.8759C21.4449 54.0189 22.1227 55.1318 23.5278 57.7989C25.663 61.8512 25.9028 62.1342 27.5241 62.5167C29.2577 62.9257 30.5857 62.0658 30.8203 60.3822C31.0913 58.4383 30.4889 57.6591 26.5398 54.8451C25.0238 53.7648 23.6296 52.6887 23.4418 52.4539C23.2378 52.1989 23.1005 51.7553 23.1005 51.3519C23.1005 50.8301 22.9672 50.5337 22.5144 50.0477C22.0194 49.5165 21.7838 49.405 21.0006 49.331L20.0729 49.2433L17.1625 45.8663C15.5618 44.0089 14.2521 42.4231 14.2521 42.3427C14.2521 42.0486 14.7948 41.8232 20.3329 39.817C24.0138 38.4834 26.1093 37.8085 26.3691 37.8725C26.7911 37.9768 32.1258 43.9739 32.1258 44.3441C32.1258 44.4998 31.4441 44.5736 29.604 44.6173C26.7713 44.6845 26.2063 44.8706 25.4288 45.9919C25.065 46.5167 25.0227 46.744 25.0912 47.81C25.2287 49.9539 26.5855 52.0442 29.8028 55.0683C30.8513 56.0539 31.7616 56.9997 31.8255 57.1699C31.8892 57.3399 31.8206 57.9919 31.6728 58.6183C31.5252 59.2448 31.2445 60.907 31.0493 62.3121C30.4837 66.3828 29.6785 69.0516 28.0471 72.2635C26.1633 75.9722 24.1488 78.1374 18.5878 82.4316C14.9419 85.247 11.9559 87.7872 10.2512 89.5241C1.26672 98.6779 -1.90065 109.54 1.09984 120.909C2.45223 126.034 5.3453 131.369 9.11011 135.683C13.7732 141.025 22.6363 146.514 29.3529 148.22C32.2957 148.967 33.6952 149.062 40.4433 148.967C45.8435 148.892 46.9991 148.828 48.6723 148.514C52.984 147.703 54.1914 147.559 56.7243 147.556C59.6047 147.552 60.3862 147.708 63.1177 148.825C65.2169 149.685 66.651 149.966 68.2543 149.834C70.2328 149.671 70.9534 148.968 70.574 147.571C70.4087 146.962 70.4222 146.792 70.6565 146.538C71.1309 146.022 71.8094 146.183 73.465 147.207C76.1832 148.888 76.4437 148.959 77.1889 148.226C77.6034 147.818 77.6352 147.68 77.5791 146.534L77.5181 145.285L78.7409 145.065C80.1572 144.809 80.7419 144.489 80.8969 143.881C81.0721 143.194 80.8619 142.712 80.0018 141.829C79.5604 141.376 79.1993 140.929 79.1993 140.836C79.1993 140.742 79.5774 140.495 80.0399 140.287C80.5021 140.08 80.9351 139.882 81.0018 139.848C81.0687 139.814 81.2282 140.152 81.3565 140.598C81.5 141.098 81.7733 141.545 82.067 141.761L82.5445 142.111L83.5707 141.715C85.5059 140.966 85.7166 140.997 87.7249 142.312C88.7033 142.952 89.7625 143.518 90.0787 143.568C91.2585 143.757 91.8535 143.003 92.0461 141.078C92.2262 139.275 92.168 139.322 94.3452 139.242C96.1444 139.177 96.2464 139.153 96.6504 138.691C97.3988 137.835 97.2466 137.429 95.0727 134.491C92.2597 130.689 91.7093 129.11 92.6883 127.649C93.3101 126.721 94.1829 124.398 94.6843 122.337C95.9781 117.016 95.9774 111.619 94.6822 106.257C93.9028 103.032 91.8392 97.268 90.608 94.8787C90.3679 94.4122 90.1713 93.9641 90.1713 93.8824C90.1713 93.8006 90.8296 93.2942 91.6344 92.7565C94.573 90.7933 98.9117 86.5283 102.01 82.5569C105.227 78.4346 108.056 73.592 109.19 70.2672C110.649 65.9926 111.286 60.7695 110.879 56.4253C109.948 46.4733 105.652 37.471 99.5969 32.7803C95.8041 29.8424 92.1855 28.2267 86.0787 26.7451C83.2761 26.0651 75.681 25.5285 72.563 25.7902C68.2124 26.1554 66.6933 26.3482 65.5727 26.6775C64.9401 26.8634 63.2403 27.2898 61.7954 27.6254C60.3504 27.9608 59.011 28.3181 58.8186 28.4194C58.6262 28.5207 58.0406 28.7132 57.5173 28.8472C56.3265 29.1523 53.4124 30.3696 52.2244 31.0584C51.1306 31.6925 47.2813 34.3959 46.5487 35.0446C46.2567 35.3032 45.1418 36.2408 44.0712 37.1283C41.6279 39.1535 40.1805 40.573 38.4149 42.6757C36.4361 45.0324 35.4882 45.6184 35.4882 44.4854C35.4882 43.879 36.6511 42.3914 38.8933 40.129C41.3278 37.6727 46.1484 33.9365 50.0969 31.4453C50.9679 30.8957 52.2656 30.0648 52.9804 29.5991C53.6952 29.1331 54.3631 28.752 54.4646 28.752C54.5662 28.752 55.5519 28.343 56.6552 27.8431L58.6611 26.9342L58.7747 26.1897C59.0518 24.3719 58.2495 22.7827 55.6296 19.9607C53.9258 18.1253 53.008 16.8746 53.008 16.3883C53.008 15.819 53.6079 14.6426 56.6879 9.1718C60.0545 3.19158 60.2598 2.76639 60.2619 1.76614C60.2642 0.699764 59.8933 0.373254 59.0249 0.676791ZM27.8607 21.8023C27.144 23.2286 25.8951 25.1739 24.069 27.7077C23.2757 28.8085 21.9567 30.8289 21.1381 32.1972C20.3194 33.5657 19.4903 34.9449 19.2957 35.262C18.9085 35.8929 17.6201 37.3467 17.532 37.2522C17.4538 37.1681 20.184 32.2729 21.4021 30.3133C22.4089 28.6939 23.1826 27.581 26.0362 23.6486C26.8237 22.5636 27.6599 21.3394 27.8944 20.9281C28.5344 19.806 28.5072 20.5159 27.8607 21.8023ZM100.259 40.3264C100.513 40.6278 100.435 41.1488 99.8634 42.9802C99.4323 44.3606 99.0825 44.5898 98.5732 43.8254C98.1219 43.148 98.0546 42.2364 98.3916 41.3684C98.8375 40.2199 99.7427 39.7148 100.259 40.3264ZM86.4236 46.934C88.1462 47.7585 88.355 48.0389 87.6065 48.5213C87.0975 48.8494 86.6002 48.8047 84.7155 48.2618C83.738 47.9802 83.2764 47.9268 82.8405 48.0452C81.8357 48.3181 81.2636 47.61 81.9865 46.9885C83.2251 45.9237 84.2857 45.9107 86.4236 46.934ZM60.117 48.3591C60.8247 48.989 60.2803 50.3253 58.6259 52.0198C57.4862 53.1868 56.4198 53.6747 54.4804 53.9161C53.6474 54.0198 53.4294 53.9655 52.0913 53.3208C50.5006 52.5545 49.1147 51.3919 49.1147 50.8236C49.1147 50.3955 49.4632 50.4308 51.8491 51.1004C53.8233 51.6545 54.3933 51.5313 55.825 50.2413C56.7996 49.3632 58.1537 48.3908 58.671 48.1976C59.1849 48.0058 59.7969 48.0742 60.117 48.3591ZM21.5009 50.33C21.6789 50.4237 21.912 50.747 22.0188 51.0487C22.4305 52.2099 21.2797 53.1907 20.3265 52.4908C20.0665 52.2999 19.7763 52.0226 19.6815 51.8749C19.4132 51.4563 19.6926 50.7173 20.227 50.432C20.8048 50.1238 21.0687 50.1026 21.5009 50.33ZM24.1502 54.6681C24.3515 54.9463 24.5162 55.2454 24.5162 55.333C24.5162 55.7319 25.9445 57.0656 27.2764 57.9106C28.8043 58.88 29.4097 59.5336 29.2228 60.0124C29.1285 60.254 29.0643 60.2348 28.781 59.8806C28.5985 59.6526 27.9207 59.162 27.2748 58.7904C25.982 58.0469 25.3181 57.389 24.5874 56.1277C24.3217 55.6691 23.9142 55.0395 23.6818 54.7284C23.3613 54.2992 23.3227 54.1627 23.5218 54.1627C23.6662 54.1627 23.9489 54.3902 24.1502 54.6681ZM25.0181 54.6834C25.2333 54.9698 25.7461 55.3727 26.1574 55.5786C27.4518 56.2267 29.4248 57.6126 29.8095 58.144C30.0842 58.5234 30.1732 58.8936 30.1555 59.5849L30.1319 60.5154L30.0151 59.6921C29.864 58.6272 29.2722 58.0166 27.4353 57.0303C26.6561 56.6119 25.8458 56.1111 25.6343 55.9174C25.1754 55.4968 24.3392 54.4377 24.3392 54.2769C24.3392 54.0106 24.6539 54.1991 25.0181 54.6834ZM23.9067 56.2077C24.6367 57.539 25.4858 58.6684 26.9478 60.2526C27.1677 60.4908 27.3477 60.7329 27.3477 60.7904C27.3477 60.8478 27.6861 60.9992 28.0998 61.127C28.5136 61.2546 28.9277 61.4239 29.02 61.5029C29.2673 61.7144 28.0237 61.6784 27.3728 61.4551C26.5558 61.175 25.0521 59.2885 24.0841 57.3295C23.6257 56.4015 23.1327 55.4266 22.9885 55.1635C22.8444 54.9003 22.8042 54.6848 22.8991 54.6848C22.9941 54.6848 23.4475 55.3702 23.9067 56.2077ZM103.85 62.7386C105.329 63.8487 104.84 64.4911 102.294 64.7818C100.313 65.0079 99.902 65.1984 98.6186 66.4853C97.7526 67.3538 95.3263 68.8177 93.8964 69.3346C92.432 69.8641 91.587 69.6892 91.587 68.8565C91.587 68.58 91.9563 68.2289 92.9585 67.5533C93.7129 67.0447 94.9671 66.0711 95.7457 65.3895C98.6972 62.8067 100.046 62.1272 102.048 62.2139C103.001 62.2551 103.334 62.3523 103.85 62.7386ZM19.6292 88.5913C19.6781 88.6691 19.2249 88.9763 18.6221 89.2739C17.2996 89.9267 14.9115 91.7739 12.7456 93.8187C11.1612 95.3147 9.30477 97.5964 7.90938 99.7628C7.50873 100.385 7.17921 100.789 7.17709 100.661C7.17196 100.334 8.68291 96.5189 9.16391 95.6447C10.1197 93.9075 13.3096 90.606 14.783 89.8291C15.777 89.305 18.3123 88.5319 19.241 88.4698C19.4056 88.4588 19.5802 88.5135 19.6292 88.5913ZM32.2715 130.379C33.1961 130.843 33.8277 131.858 34.3132 133.66C34.78 135.394 34.6963 136.131 33.9799 136.592C32.7827 137.364 29.6954 135.531 28.693 133.454C28.3327 132.707 28.3297 131.573 28.6865 130.895C29.2308 129.86 30.7895 129.636 32.2715 130.379ZM29.4773 130.435C29.0546 130.653 28.5953 131.68 28.821 131.902C28.8818 131.962 29.073 131.846 29.2457 131.645C30.2245 130.507 31.9828 131.56 33.5531 134.224L33.9121 134.833L33.8286 134.068C33.6973 132.862 32.8454 131.435 31.9186 130.868C30.9693 130.287 30.0712 130.127 29.4773 130.435Z" fill="#F3F3F3"/>
</svg>
