<svg width="171" height="228" viewBox="0 0 171 228" fill="none" xmlns="http://www.w3.org/2000/svg">
<g filter="url(#filter0_d_18_898)">
<path fill-rule="evenodd" clip-rule="evenodd" d="M86.6763 0.159422C86.4619 0.234568 84.8247 0.9078 83.038 1.65515C76.8762 4.23294 74.5894 5.17521 73.6827 5.50939C73.1824 5.69405 70.025 6.9564 66.6661 8.31492C54.9449 13.0553 44.6888 17.1052 42.2613 17.9515C40.5906 18.534 39.5491 19.0672 38.9747 19.634C38.5124 20.0905 37.2975 22.0012 36.2749 23.8801C35.2526 25.759 33.6055 28.6235 32.6146 30.2457C28.926 36.2851 26.7208 39.8174 24.753 42.8389C23.6405 44.5472 22.4872 46.4231 22.1899 47.0076C21.8926 47.5921 20.698 49.5512 19.535 51.3609C15.1474 58.1889 13.1326 61.5643 13.1326 62.0867C13.1326 63.1657 14.6609 63.4217 16.6427 62.6748C17.2742 62.4368 17.9519 62.3032 18.1489 62.3778C18.5182 62.5176 26.5451 71.5251 27.26 72.602C27.5209 72.9949 27.6425 73.7012 27.6082 74.6258C27.544 76.3544 28.0739 77.2829 29.4523 77.8574C29.9814 78.0777 30.6965 78.3906 31.0416 78.5524C31.4912 78.7632 32.4865 80.4031 34.5499 84.3332C37.6853 90.3046 38.0374 90.7216 40.4183 91.2854C42.964 91.8881 44.9141 90.6208 45.2587 88.14C45.6566 85.2755 44.772 84.1273 38.9729 79.9807C36.7466 78.3888 34.6993 76.803 34.4236 76.457C34.124 76.0813 33.9223 75.4276 33.9223 74.8331C33.9223 74.0642 33.7266 73.6274 33.0616 72.9113C32.3348 72.1286 31.9889 71.9642 30.8387 71.8552L29.4764 71.7259L25.2026 66.7496C22.852 64.0126 20.9287 61.6759 20.9287 61.5574C20.9287 61.124 21.7258 60.7918 29.8582 57.8355C35.2635 55.8704 38.3407 54.8758 38.7221 54.9702C39.3419 55.1238 47.1758 63.961 47.1758 64.5065C47.1758 64.7361 46.1747 64.8448 43.4726 64.9092C39.3128 65.0082 38.4831 65.2824 37.3414 66.9348C36.8072 67.7081 36.745 68.043 36.8456 69.6139C37.0475 72.7731 39.04 75.8533 43.7644 80.3095C45.3042 81.7619 46.6409 83.1555 46.7348 83.4063C46.8283 83.6569 46.7275 84.6177 46.5105 85.5407C46.2938 86.464 45.8816 88.9133 45.595 90.9838C44.7644 96.9823 43.582 100.915 41.1862 105.648C38.4199 111.113 35.4618 114.304 27.2956 120.631C21.9417 124.78 17.5569 128.523 15.0536 131.083C1.86014 144.572 -2.79104 160.579 1.61508 177.331C3.60102 184.882 7.8494 192.745 13.3779 199.101C20.2255 206.973 33.2407 215.062 43.1038 217.576C47.4252 218.677 49.4803 218.816 59.3897 218.677C67.3197 218.566 69.0167 218.472 71.4738 218.008C77.8053 216.814 79.5784 216.602 83.2979 216.597C87.5276 216.592 88.6752 216.821 92.6863 218.468C95.7689 219.734 97.8749 220.149 100.229 219.954C103.135 219.714 104.193 218.678 103.636 216.619C103.393 215.721 103.413 215.472 103.757 215.097C104.454 214.336 105.45 214.575 107.881 216.083C111.873 218.56 112.255 218.665 113.349 217.585C113.958 216.984 114.005 216.781 113.922 215.091L113.833 213.251L115.629 212.926C117.708 212.55 118.567 212.077 118.795 211.182C119.052 210.17 118.743 209.459 117.48 208.159C116.832 207.491 116.302 206.832 116.302 206.694C116.302 206.556 116.857 206.193 117.536 205.887C118.215 205.581 118.851 205.289 118.949 205.239C119.047 205.189 119.281 205.687 119.469 206.345C119.68 207.081 120.081 207.74 120.513 208.058L121.214 208.574L122.721 207.99C125.563 206.887 125.872 206.932 128.821 208.87C130.258 209.814 131.813 210.647 132.278 210.721C134.01 210.999 134.884 209.889 135.167 207.051C135.431 204.395 135.346 204.463 138.543 204.347C141.185 204.25 141.335 204.214 141.928 203.534C143.027 202.273 142.804 201.675 139.611 197.346C135.48 191.743 134.672 189.416 136.11 187.263C137.023 185.895 138.305 182.473 139.041 179.435C140.941 171.594 140.94 163.641 139.038 155.74C137.893 150.987 134.863 142.494 133.055 138.973C132.702 138.286 132.414 137.625 132.414 137.505C132.414 137.385 133.38 136.638 134.562 135.846C138.877 132.953 145.249 126.668 149.799 120.816C154.522 114.742 158.677 107.606 160.342 102.706C162.484 96.4073 163.42 88.7107 162.823 82.3092C161.455 67.6442 155.147 54.3785 146.255 47.4664C140.685 43.1372 135.372 40.7564 126.404 38.573C122.288 37.571 111.135 36.7803 106.556 37.166C100.168 37.7041 97.937 37.9883 96.2915 38.4735C95.3625 38.7474 92.8664 39.3758 90.7445 39.8703C88.6227 40.3645 86.6557 40.891 86.3732 41.0403C86.0908 41.1895 85.2308 41.4732 84.4624 41.6707C82.7137 42.1203 78.4344 43.914 76.6899 44.9291C75.0836 45.8635 69.4312 49.8472 68.3553 50.8031C67.9265 51.1842 66.2893 52.5658 64.7171 53.8735C61.1293 56.8578 59.0038 58.9496 56.4111 62.048C53.5052 65.5209 52.1133 66.3844 52.1133 64.7148C52.1133 63.8213 53.8209 61.6292 57.1135 58.2953C60.6886 54.6758 67.7675 49.1701 73.5657 45.4993C74.8448 44.6893 76.7505 43.4649 77.8001 42.7786C78.8497 42.0921 79.8305 41.5304 79.9796 41.5304C80.1288 41.5304 81.5763 40.9277 83.1963 40.1911L86.142 38.8518L86.3088 37.7546C86.7158 35.0761 85.5375 32.7342 81.6904 28.5758C79.1883 25.8711 77.8406 24.0281 77.8406 23.3115C77.8406 22.4726 78.7216 20.7391 83.2444 12.6775C88.1882 3.86516 88.4896 3.2386 88.4928 1.76467C88.4961 0.193275 87.9514 -0.287862 86.6763 0.159422ZM40.9126 31.2895C39.8601 33.3913 38.0262 36.2579 35.3446 39.9916C34.1796 41.6137 32.2428 44.5909 31.0406 46.6072C29.8384 48.6238 28.6209 50.6561 28.3351 51.1234C27.7665 52.0531 25.8746 54.1954 25.7452 54.0561C25.6303 53.9323 29.6396 46.7188 31.4283 43.8312C32.9067 41.4447 34.0429 39.8049 38.2333 34.0102C39.3898 32.4113 40.6176 30.6073 40.962 30.0013C41.9019 28.3478 41.8619 29.394 40.9126 31.2895ZM147.227 58.5862C147.6 59.0304 147.486 59.798 146.646 62.4968C146.013 64.5309 145.499 64.8687 144.752 63.7423C144.089 62.7441 143.99 61.4007 144.485 60.1217C145.14 58.4292 146.469 57.6849 147.227 58.5862ZM126.91 68.3231C129.44 69.538 129.747 69.9511 128.647 70.6621C127.9 71.1455 127.17 71.0796 124.402 70.2797C122.967 69.8647 122.289 69.786 121.649 69.9604C120.173 70.3625 119.333 69.3192 120.395 68.4033C122.213 66.8343 123.771 66.815 126.91 68.3231ZM88.2799 70.423C89.3191 71.3512 88.5198 73.3204 86.0902 75.8174C84.4167 77.537 82.8507 78.2559 80.0028 78.6116C78.7795 78.7645 78.4594 78.6845 76.4945 77.7345C74.1585 76.6053 72.1234 74.892 72.1234 74.0547C72.1234 73.4238 72.6351 73.4758 76.1387 74.4625C79.0378 75.2791 79.8749 75.0975 81.9773 73.1965C83.4084 71.9026 85.3969 70.4697 86.1565 70.185C86.9112 69.9024 87.8098 70.0032 88.2799 70.423ZM31.5733 73.3273C31.8348 73.4653 32.177 73.9418 32.334 74.3863C32.9384 76.0975 31.2485 77.5427 29.8488 76.5114C29.4671 76.2301 29.0409 75.8215 28.9016 75.6038C28.5076 74.9869 28.918 73.898 29.7028 73.4776C30.5513 73.0234 30.9387 72.9921 31.5733 73.3273ZM35.4639 79.7198C35.7593 80.1297 36.0013 80.5706 36.0013 80.6996C36.0013 81.2874 38.0987 83.2527 40.0545 84.4979C42.2982 85.9264 43.1873 86.8895 42.9128 87.595C42.7743 87.951 42.68 87.9228 42.2639 87.4009C41.996 87.0649 41.0007 86.3419 40.0522 85.7943C38.1538 84.6987 37.1788 83.7292 36.1058 81.8706C35.7157 81.1948 35.1172 80.2672 34.776 79.8086C34.3054 79.1761 34.2487 78.9751 34.5411 78.9751C34.7531 78.9751 35.1681 79.3103 35.4639 79.7198ZM36.7383 79.7424C37.0543 80.1643 37.8074 80.758 38.4113 81.0614C40.312 82.0165 43.2093 84.0588 43.7743 84.8418C44.1776 85.4009 44.3083 85.9464 44.2824 86.9651L44.2478 88.3362L44.0763 87.1231C43.8543 85.5538 42.9853 84.6541 40.2879 83.2007C39.1437 82.5841 37.9537 81.8462 37.6432 81.5608C36.9693 80.9409 35.7414 79.3803 35.7414 79.1433C35.7414 78.7509 36.2035 79.0287 36.7383 79.7424ZM35.1063 81.9886C36.1783 83.9503 37.4251 85.6146 39.5719 87.9489C39.8949 88.3001 40.1592 88.6568 40.1592 88.7414C40.1592 88.8261 40.6561 89.0492 41.2637 89.2375C41.8713 89.4254 42.4794 89.675 42.615 89.7914C42.9781 90.103 41.1519 90.0499 40.1961 89.7209C38.9963 89.3082 36.7882 86.5284 35.3667 83.6415C34.6936 82.274 33.9696 80.8375 33.7578 80.4498C33.5463 80.062 33.4873 79.7445 33.6266 79.7445C33.7661 79.7445 34.4319 80.7544 35.1063 81.9886ZM152.5 91.6124C154.673 93.2481 153.954 94.1948 150.215 94.6231C147.307 94.9562 146.703 95.2371 144.818 97.1334C143.547 98.4132 139.984 100.57 137.884 101.332C135.734 102.112 134.493 101.855 134.493 100.628C134.493 100.22 135.035 99.7027 136.507 98.7071C137.614 97.9577 139.456 96.523 140.6 95.5187C144.934 91.7126 146.914 90.7114 149.854 90.8391C151.254 90.8999 151.743 91.043 152.5 91.6124ZM28.8249 129.708C28.8967 129.823 28.2311 130.276 27.346 130.714C25.404 131.676 21.897 134.398 18.7165 137.411C16.3898 139.616 13.6638 142.978 11.6147 146.17C11.0263 147.087 10.5425 147.683 10.5393 147.494C10.5318 147.012 12.7506 141.39 13.4569 140.102C14.8605 137.542 19.5447 132.677 21.7084 131.532C23.1681 130.76 26.891 129.621 28.2548 129.529C28.4965 129.513 28.753 129.594 28.8249 129.708ZM47.3896 191.286C48.7475 191.969 49.675 193.465 50.3878 196.121C51.0733 198.675 50.9504 199.761 49.8984 200.441C48.1404 201.578 43.6067 198.877 42.1348 195.816C41.6057 194.716 41.6013 193.046 42.1252 192.046C42.9245 190.521 45.2135 190.19 47.3896 191.286ZM43.2865 191.368C42.6657 191.69 41.9913 193.203 42.3227 193.53C42.4121 193.618 42.6927 193.448 42.9464 193.152C44.3837 191.474 46.9658 193.025 49.2716 196.951L49.7989 197.849L49.6763 196.722C49.4834 194.945 48.2324 192.842 46.8715 192.006C45.4775 191.15 44.1587 190.915 43.2865 191.368Z" fill="url(#paint0_linear_18_898)"/>
</g>
<defs>
<filter id="filter0_d_18_898" x="0" y="0" width="171" height="228" filterUnits="userSpaceOnUse" color-interpolation-filters="sRGB">
<feFlood flood-opacity="0" result="BackgroundImageFix"/>
<feColorMatrix in="SourceAlpha" type="matrix" values="0 0 0 0 0 0 0 0 0 0 0 0 0 0 0 0 0 0 127 0" result="hardAlpha"/>
<feOffset dx="4" dy="4"/>
<feGaussianBlur stdDeviation="2"/>
<feComposite in2="hardAlpha" operator="out"/>
<feColorMatrix type="matrix" values="0 0 0 0 0 0 0 0 0 0 0 0 0 0 0 0 0 0 0.5 0"/>
<feBlend mode="normal" in2="BackgroundImageFix" result="effect1_dropShadow_18_898"/>
<feBlend mode="normal" in="SourceGraphic" in2="effect1_dropShadow_18_898" result="shape"/>
</filter>
<linearGradient id="paint0_linear_18_898" x1="81.5" y1="0" x2="81.5" y2="220" gradientUnits="userSpaceOnUse">
<stop offset="1" stop-color="#7641C5"/>
</linearGradient>
</defs>
</svg>
