<svg width="308" height="413" viewBox="0 0 308 413" fill="none" xmlns="http://www.w3.org/2000/svg">
<g filter="url(#filter0_d_16_795)">
<path fill-rule="evenodd" clip-rule="evenodd" d="M159.527 0.293481C159.132 0.431818 156.119 1.67118 152.831 3.04699C141.49 7.79245 137.281 9.52709 135.612 10.1423C134.692 10.4822 128.88 12.8061 122.698 15.307C101.126 24.0336 82.2493 31.4891 77.7816 33.0471C74.7067 34.1194 72.7897 35.1009 71.7327 36.1444C70.8818 36.9848 68.6458 40.5022 66.7637 43.9611C64.8821 47.42 61.8507 52.6933 60.027 55.6796C53.2381 66.7975 49.1793 73.3003 45.5577 78.8625C43.5101 82.0074 41.3875 85.4607 40.8403 86.5367C40.2931 87.6127 38.0944 91.2193 35.9541 94.5507C27.8786 107.12 24.1704 113.334 24.1704 114.296C24.1704 116.282 26.9832 116.754 30.6307 115.379C31.7929 114.941 33.0403 114.695 33.4029 114.832C34.0825 115.089 48.856 131.671 50.1718 133.654C50.652 134.377 50.8758 135.677 50.8127 137.379C50.6945 140.562 51.6698 142.271 54.2066 143.328C55.1804 143.734 56.4967 144.31 57.1319 144.608C57.9593 144.996 59.7911 148.015 63.5888 155.25C69.3594 166.243 70.0075 167.01 74.3896 168.048C79.0749 169.158 82.664 166.825 83.2982 162.258C84.0305 156.984 82.4024 154.871 71.7293 147.237C67.6318 144.307 63.8638 141.387 63.3563 140.75C62.8049 140.059 62.4337 138.855 62.4337 137.761C62.4337 136.345 62.0736 135.541 60.8496 134.223C59.5118 132.782 58.8752 132.48 56.7583 132.279L54.2511 132.041L46.3851 122.88C42.059 117.841 38.5191 113.54 38.5191 113.322C38.5191 112.524 39.9861 111.912 54.9537 106.47C64.9022 102.852 70.5656 101.021 71.2677 101.195C72.4085 101.478 86.8266 117.746 86.8266 118.751C86.8266 119.173 84.9842 119.373 80.0109 119.492C72.3549 119.674 70.8277 120.179 68.7266 123.221C67.7432 124.644 67.6289 125.261 67.814 128.153C68.1856 133.969 71.8527 139.639 80.548 147.842C83.3819 150.516 85.8422 153.082 86.0149 153.544C86.1871 154.005 86.0015 155.773 85.6021 157.473C85.2032 159.172 84.4447 163.681 83.9171 167.493C82.3885 178.536 80.2123 185.775 75.8029 194.488C70.7115 204.549 65.2671 210.423 50.2373 222.072C40.3835 229.709 32.3133 236.6 27.7059 241.312C3.42357 266.143 -5.13689 295.61 2.97254 326.451C6.62764 340.352 14.4467 354.826 24.6219 366.527C37.2249 381.019 61.1791 395.91 79.3322 400.537C87.2857 402.565 91.068 402.82 109.306 402.565C123.901 402.36 127.025 402.187 131.547 401.334C143.2 399.134 146.463 398.745 153.309 398.736C161.094 398.726 163.206 399.147 170.588 402.18C176.262 404.511 180.138 405.275 184.471 404.916C189.818 404.473 191.766 402.566 190.741 398.776C190.294 397.124 190.33 396.664 190.963 395.973C192.246 394.574 194.08 395.013 198.554 397.79C205.901 402.349 206.605 402.542 208.619 400.554C209.739 399.448 209.825 399.073 209.673 395.963L209.508 392.575L212.813 391.978C216.641 391.285 218.221 390.415 218.64 388.767C219.114 386.904 218.546 385.596 216.221 383.201C215.028 381.972 214.052 380.759 214.052 380.505C214.052 380.251 215.074 379.582 216.324 379.018C217.573 378.455 218.744 377.918 218.924 377.827C219.105 377.735 219.536 378.651 219.882 379.862C220.27 381.217 221.009 382.43 221.803 383.015L223.093 383.966L225.867 382.89C231.097 380.86 231.667 380.942 237.094 384.51C239.739 386.248 242.601 387.782 243.456 387.919C246.645 388.43 248.253 386.386 248.773 381.162C249.26 376.273 249.103 376.399 254.987 376.184C259.85 376.006 260.125 375.94 261.217 374.687C263.24 372.366 262.829 371.265 256.953 363.295C249.35 352.981 247.863 348.697 250.509 344.734C252.19 342.217 254.548 335.916 255.903 330.324C259.4 315.89 259.398 301.248 255.898 286.704C253.791 277.954 248.214 262.319 244.887 255.837C244.237 254.572 243.706 253.356 243.706 253.135C243.706 252.913 245.485 251.539 247.661 250.08C255.603 244.755 267.329 233.185 275.703 222.412C284.396 211.229 292.043 198.092 295.109 189.073C299.051 177.477 300.773 163.308 299.674 151.524C297.157 124.527 285.547 100.106 269.181 87.3813C258.93 79.4116 249.15 75.0288 232.645 71.0094C225.07 69.1648 204.543 67.7092 196.116 68.4193C184.358 69.4098 180.252 69.933 177.224 70.8263C175.514 71.3305 170.92 72.4873 167.014 73.3975C163.109 74.3073 159.489 75.2766 158.969 75.5514C158.449 75.8262 156.867 76.3484 155.452 76.7119C152.234 77.5396 144.358 80.8417 141.147 82.7105C138.191 84.4305 127.787 91.7642 125.807 93.5238C125.018 94.2254 122.005 96.7689 119.111 99.1763C112.508 104.67 108.596 108.521 103.824 114.225C98.4758 120.618 95.9141 122.208 95.9141 119.134C95.9141 117.489 99.0569 113.454 105.117 107.316C111.697 100.653 124.725 90.5177 135.397 83.76C137.751 82.269 141.258 80.015 143.19 78.7516C145.122 77.4877 146.927 76.4537 147.202 76.4537C147.476 76.4537 150.14 75.3442 153.122 73.9882L158.543 71.5227L158.851 69.5029C159.6 64.5718 157.431 60.2607 150.35 52.6055C145.745 47.6263 143.265 44.2335 143.265 42.9144C143.265 41.37 144.886 38.1788 153.211 23.3381C162.31 7.11541 162.864 5.96197 162.87 3.24859C162.876 0.355801 161.874 -0.529928 159.527 0.293481ZM75.2993 57.6012C73.3622 61.4704 69.9869 66.7475 65.0514 73.6208C62.9072 76.6071 59.3425 82.0877 57.1299 85.7997C54.9174 89.5121 52.6766 93.2533 52.1505 94.1135C51.104 95.825 47.622 99.7688 47.3838 99.5125C47.1724 99.2844 54.5515 86.0051 57.8436 80.6892C60.5646 76.296 62.6556 73.2771 70.3681 62.6096C72.4965 59.6663 74.7564 56.3453 75.3901 55.2296C77.1201 52.1858 77.0465 54.1116 75.2993 57.6012ZM270.97 107.852C271.657 108.67 271.447 110.083 269.901 115.051C268.736 118.796 267.79 119.417 266.414 117.344C265.194 115.506 265.013 113.033 265.923 110.679C267.129 107.563 269.575 106.193 270.97 107.852ZM233.577 125.777C238.233 128.013 238.797 128.774 236.774 130.082C235.399 130.972 234.055 130.851 228.961 129.379C226.319 128.615 225.071 128.47 223.893 128.791C221.178 129.531 219.631 127.61 221.585 125.924C224.933 123.036 227.799 123 233.577 125.777ZM162.478 129.642C164.391 131.351 162.92 134.976 158.448 139.573C155.368 142.739 152.486 144.062 147.244 144.717C144.993 144.998 144.404 144.851 140.787 143.102C136.488 141.023 132.743 137.869 132.743 136.328C132.743 135.166 133.684 135.262 140.133 137.079C145.468 138.582 147.009 138.248 150.878 134.748C153.512 132.366 157.172 129.728 158.57 129.204C159.959 128.684 161.613 128.87 162.478 129.642ZM58.1104 134.989C58.5916 135.243 59.2215 136.12 59.5104 136.938C60.6229 140.089 57.5126 142.749 54.9365 140.851C54.2339 140.333 53.4495 139.581 53.1931 139.18C52.468 138.044 53.2233 136.039 54.6677 135.266C56.2293 134.429 56.9425 134.372 58.1104 134.989ZM65.2709 146.757C65.8148 147.511 66.26 148.323 66.26 148.561C66.26 149.643 70.1203 153.261 73.7199 155.553C77.8495 158.183 79.4857 159.956 78.9807 161.254C78.7257 161.91 78.5521 161.858 77.7864 160.897C77.2933 160.279 75.4614 158.948 73.7156 157.94C70.2217 155.923 68.4272 154.138 66.4523 150.716C65.7344 149.472 64.6329 147.765 64.0049 146.92C63.1387 145.756 63.0344 145.386 63.5725 145.386C63.9628 145.386 64.7266 146.003 65.2709 146.757ZM67.6165 146.799C68.1981 147.575 69.5842 148.668 70.6957 149.227C74.1939 150.985 79.5264 154.745 80.5662 156.186C81.3085 157.215 81.5491 158.22 81.5013 160.095L81.4377 162.619L81.122 160.386C80.7135 157.497 79.1141 155.84 74.1495 153.165C72.0435 152.03 69.8534 150.672 69.2819 150.146C68.0417 149.005 65.7817 146.132 65.7817 145.696C65.7817 144.973 66.6321 145.485 67.6165 146.799ZM64.6128 150.934C66.5858 154.545 68.8806 157.609 72.8318 161.906C73.4263 162.552 73.9127 163.209 73.9127 163.365C73.9127 163.521 74.8272 163.932 75.9454 164.278C77.0637 164.624 78.1829 165.084 78.4325 165.298C79.1007 165.872 75.7398 165.774 73.9806 165.168C71.7723 164.408 67.7083 159.291 65.092 153.976C63.8533 151.459 62.5208 148.815 62.131 148.101C61.7416 147.387 61.633 146.802 61.8894 146.802C62.1463 146.802 63.3716 148.662 64.6128 150.934ZM280.675 168.65C284.674 171.661 283.352 173.404 276.469 174.192C271.117 174.806 270.005 175.323 266.537 178.814C264.196 181.17 257.639 185.141 253.774 186.543C249.816 187.979 247.532 187.505 247.532 185.246C247.532 184.496 248.531 183.544 251.239 181.711C253.278 180.331 256.668 177.69 258.772 175.841C266.749 168.835 270.393 166.991 275.804 167.227C278.381 167.338 279.282 167.602 280.675 168.65ZM53.052 238.781C53.184 238.992 51.9591 239.825 50.3301 240.633C46.7558 242.404 40.3013 247.415 34.4475 252.962C30.1653 257.02 25.148 263.21 21.3767 269.086C20.2939 270.774 19.4033 271.871 19.3975 271.523C19.3837 270.636 23.4673 260.286 24.7673 257.915C27.3506 253.203 35.9718 244.247 39.954 242.139C42.6406 240.717 49.4926 238.62 52.0027 238.451C52.4475 238.422 52.9195 238.57 53.052 238.781ZM87.2202 352.14C89.7193 353.398 91.4263 356.152 92.7382 361.041C94 365.743 93.7738 367.742 91.8376 368.994C88.602 371.087 80.2577 366.115 77.5487 360.48C76.5749 358.454 76.5667 355.38 77.531 353.54C79.0022 350.732 83.215 350.123 87.2202 352.14ZM79.6685 352.29C78.5258 352.884 77.2846 355.668 77.8945 356.271C78.059 356.433 78.5756 356.12 79.0424 355.574C81.6878 352.487 86.4401 355.342 90.684 362.57L91.6544 364.222L91.4287 362.147C91.0738 358.876 88.7713 355.004 86.2665 353.465C83.7009 351.889 81.2736 351.456 79.6685 352.29Z" fill="url(#paint0_linear_16_795)"/>
</g>
<defs>
<filter id="filter0_d_16_795" x="0" y="0" width="308" height="413" filterUnits="userSpaceOnUse" color-interpolation-filters="sRGB">
<feFlood flood-opacity="0" result="BackgroundImageFix"/>
<feColorMatrix in="SourceAlpha" type="matrix" values="0 0 0 0 0 0 0 0 0 0 0 0 0 0 0 0 0 0 127 0" result="hardAlpha"/>
<feOffset dx="4" dy="4"/>
<feGaussianBlur stdDeviation="2"/>
<feComposite in2="hardAlpha" operator="out"/>
<feColorMatrix type="matrix" values="0 0 0 0 0 0 0 0 0 0 0 0 0 0 0 0 0 0 0.5 0"/>
<feBlend mode="normal" in2="BackgroundImageFix" result="effect1_dropShadow_16_795"/>
<feBlend mode="normal" in="SourceGraphic" in2="effect1_dropShadow_16_795" result="shape"/>
</filter>
<linearGradient id="paint0_linear_16_795" x1="150" y1="0" x2="150" y2="405" gradientUnits="userSpaceOnUse">
<stop offset="1" stop-color="#7641C5"/>
</linearGradient>
</defs>
</svg>
