<svg width="15" height="7" viewBox="0 0 15 7" fill="none" xmlns="http://www.w3.org/2000/svg">
<path d="M10.0825 1.75C9.64136 0.718229 8.62053 0 7.4174 0H3.33407C1.72261 0 0.39917 1.28698 0.39917 2.89844V4.0651C0.39917 5.67656 1.72261 7 3.33407 7H5.06584C5.06584 7 4.12886 6.81771 3.89917 5.6875H3.33407C2.6924 5.6875 1.71167 4.725 1.71167 4.08333V2.89844C1.71167 2.25677 2.6924 1.3125 3.33407 1.3125H5.06584H7.4174C8.05907 1.3125 8.56584 2.25677 8.56584 2.89844V4.0651C8.56584 4.0724 8.56584 4.07604 8.56584 4.08333H10.3158C10.3158 4.07604 10.3158 4.0724 10.3158 4.0651V2.89844C10.3158 2.4901 10.232 2.1 10.0825 1.75Z" fill="white"/>
<path d="M5.00758 5.25C5.44873 6.28177 6.46956 7 7.67269 7L11.756 7C13.3675 7 14.6909 5.71302 14.6909 4.10156L14.6909 2.9349C14.6909 1.32344 13.3675 0 11.756 0L10.0243 0C10.0243 0 10.9612 0.182292 11.1909 1.3125H11.756C12.3977 1.3125 13.3784 2.275 13.3784 2.91667L13.3784 4.10156C13.3784 4.74323 12.3977 5.6875 11.756 5.6875L10.0243 5.6875H7.67269C7.03102 5.6875 6.52425 4.74323 6.52425 4.10156L6.52425 2.9349C6.52425 2.9276 6.52425 2.92396 6.52425 2.91667H4.77425C4.77425 2.92396 4.77425 2.9276 4.77425 2.9349L4.77425 4.10156C4.77425 4.5099 4.8581 4.9 5.00758 5.25Z" fill="white"/>
</svg>
