<svg width="67" height="67" viewBox="0 0 67 67" fill="none" xmlns="http://www.w3.org/2000/svg">
<circle cx="33.5" cy="33.5" r="33.5" fill="#F8F8F8"/>
<path fill-rule="evenodd" clip-rule="evenodd" d="M21.3693 17.0803C21.0067 17.1757 20.6804 17.3846 20.3989 17.7016C19.875 18.2916 19.8977 17.9513 19.8977 25.2063C19.8977 32.4612 19.875 32.1207 20.3989 32.7112C20.5389 32.8689 20.7966 33.0815 20.9716 33.1838C21.2861 33.3674 21.3439 33.3698 26.0278 33.3942L30.7659 33.4189L31.0493 33.9528C31.2052 34.2464 31.6075 35.0171 31.9432 35.6655C32.6639 37.0572 32.843 37.2364 33.5141 37.2364C34.2497 37.2364 34.2132 37.2852 35.9063 34.0387L36.2295 33.4189L40.9699 33.3942C45.6561 33.3698 45.7139 33.3674 46.0284 33.1838C46.2034 33.0815 46.4611 32.8689 46.6011 32.7112C47.125 32.1207 47.1023 32.4612 47.1023 25.2063C47.1023 17.9513 47.125 18.2919 46.6011 17.7014C46.0683 17.101 45.8775 17.0461 44.2096 17.0147C43.3842 16.9991 42.6244 17.0093 42.5212 17.0372C42.2576 17.1087 42.089 17.484 42.1857 17.7838C42.2996 18.1367 42.6006 18.203 44.0877 18.203C45.5311 18.203 45.726 18.2482 45.9357 18.6318C46.0561 18.8519 46.0682 19.4517 46.0682 25.194C46.0682 29.787 46.0431 31.5735 45.9764 31.7317C45.9259 31.8514 45.7917 32.0176 45.6781 32.1009C45.4881 32.2404 45.0866 32.2559 40.657 32.2955L35.8425 32.3384L35.6059 32.5367C35.4614 32.6577 35.0289 33.3933 34.4943 34.4271C33.9687 35.4437 33.5721 36.1193 33.501 36.1193C33.4306 36.1193 33.0886 35.5464 32.6547 34.7015C32.2544 33.9217 31.8434 33.1376 31.7414 32.9589C31.3659 32.3011 31.7076 32.3434 26.3807 32.2955C21.2235 32.2491 21.3257 32.2589 21.0643 31.7807C20.9439 31.5607 20.9318 30.9578 20.9318 25.1728V18.8073L21.1639 18.5266L21.396 18.246L30.9152 18.203L40.4345 18.16L40.5866 17.9572C40.7908 17.6848 40.778 17.4644 40.5434 17.211L40.3481 17L30.978 17.0088C25.8245 17.0137 21.5006 17.0458 21.3693 17.0803ZM26.5 22.2154C26.195 22.3331 26.1818 22.458 26.1818 25.2227C26.1818 27.7985 26.1886 27.9204 26.3409 28.0849C26.4847 28.2403 26.606 28.2568 27.6029 28.2568C28.5983 28.2568 28.7262 28.2394 28.9154 28.0786C29.1526 27.8771 29.1831 27.6113 29.0011 27.3307C28.8867 27.154 28.8149 27.1397 28.0466 27.1397H27.2159V26.4523V25.7648H27.9593C28.7975 25.7648 28.9659 25.6675 28.9659 25.1829C28.9659 24.7633 28.7381 24.6477 27.9107 24.6477H27.2092L27.2325 23.9818L27.2557 23.3158L28.0511 23.2931C28.7468 23.2733 28.864 23.2479 28.9858 23.0903C29.1858 22.8314 29.1587 22.5407 28.9154 22.3339C28.7265 22.1733 28.603 22.1565 27.6626 22.1626C27.0888 22.1663 26.5656 22.1901 26.5 22.2154ZM30.517 22.2585C30.4295 22.3121 30.3316 22.3979 30.2995 22.4492C30.2674 22.5005 30.2405 23.7509 30.2398 25.2278C30.2387 27.7995 30.2454 27.9204 30.3977 28.0849C30.6006 28.3041 30.7995 28.3027 31.0615 28.0801L31.2693 27.9035L31.2909 26.2652L31.3125 24.6269L32.4213 26.3344C33.0311 27.2736 33.568 28.0713 33.6145 28.1072C33.8414 28.2825 34.0707 28.2726 34.2612 28.0793L34.4568 27.8808L34.4358 25.1779L34.4148 22.475L34.2011 22.3027C34.0129 22.151 33.9583 22.1434 33.7437 22.2395C33.6097 22.2994 33.493 22.3535 33.4844 22.3595C33.4758 22.3656 33.4489 23.1432 33.4247 24.0874L33.3807 25.8042L33.096 25.3763C32.9394 25.1411 32.4237 24.3556 31.95 23.6308C31.4282 22.8326 31.0132 22.2821 30.8971 22.2345C30.6705 22.1413 30.7126 22.1387 30.517 22.2585ZM37.6383 22.2884C37.0001 22.4812 36.5617 22.7928 36.1697 23.3323C35.7037 23.9737 35.538 24.5628 35.5859 25.4078C35.6332 26.2418 35.8602 26.7779 36.416 27.3683C36.9697 27.9565 37.5461 28.2051 38.3523 28.2036C39.1043 28.2022 39.6498 27.9607 40.1043 27.4281C40.5406 26.9169 40.7445 26.3734 40.7964 25.5844C40.8544 24.702 40.7853 24.6477 39.6073 24.6477C38.856 24.6477 38.7304 24.669 38.5909 24.8196C38.5034 24.9141 38.4318 25.0881 38.4318 25.2063C38.4318 25.5867 38.6883 25.7648 39.2359 25.7648H39.7218L39.6672 26.0011C39.5902 26.3342 39.2642 26.7704 38.9646 26.9411C38.6172 27.1391 37.9904 27.1212 37.5956 26.9019C36.5647 26.3295 36.2918 24.9586 37.0189 24.0056C37.5185 23.351 38.4394 23.1403 39.1321 23.5221C39.7056 23.8381 40.1288 23.7015 40.1288 23.2002C40.1288 22.8409 39.9305 22.6248 39.4066 22.413C38.8115 22.1725 38.1715 22.1274 37.6383 22.2884ZM17.7662 39.8683C17.1028 40.223 16.875 40.7726 16.875 42.0183V42.8648H16.6415C16.5131 42.8648 16.3163 42.9025 16.204 42.9486L16 43.0324V44.6642C16 46.1895 16.01 46.3017 16.1538 46.3849C16.2567 46.4444 18.7681 46.4743 23.7305 46.4751L31.1534 46.4763L31.3523 46.9175C31.6688 47.6195 31.8307 47.6769 33.5 47.6769C35.1693 47.6769 35.3312 47.6195 35.6477 46.9175L35.8466 46.4763L36.3811 46.4751L36.9157 46.4738L36.938 47.5603C36.96 48.6341 36.9628 48.649 37.1794 48.8234L37.3984 49L38.2216 48.6392C38.6742 48.4407 39.091 48.2784 39.1477 48.2784C39.2044 48.2784 39.6213 48.4407 40.0739 48.6392L40.897 49L41.1161 48.8234C41.3327 48.649 41.3355 48.6341 41.3575 47.5603L41.3798 46.4738H43.4058C45.3258 46.4738 45.4402 46.4648 45.5909 46.302C45.7817 46.0959 45.7951 45.8082 45.6261 45.5478C45.5036 45.3587 45.4811 45.3568 43.4386 45.3568H41.375V44.7123V44.0678H45.9489H50.5227V44.7123V45.3568H49.0114C47.606 45.3568 47.4889 45.3688 47.3409 45.5286C47.2534 45.6231 47.1818 45.7971 47.1818 45.9153C47.1818 46.0335 47.2534 46.2075 47.3409 46.302C47.4894 46.4624 47.606 46.4738 49.0962 46.4738C50.0443 46.4738 50.7548 46.4378 50.8462 46.3849C50.99 46.3017 51 46.1895 51 44.6642V43.0324L50.796 42.9486C50.6837 42.9025 50.49 42.8648 50.3653 42.8648H50.1387L50.112 41.8981C50.0797 40.7306 49.9477 40.3844 49.3746 39.9647L48.9934 39.6854L41.8234 39.6873C35.0564 39.6891 34.6355 39.698 34.3352 39.8458C34.1602 39.932 33.9007 40.1086 33.7585 40.2383L33.5 40.4741L33.2415 40.2383C32.6164 39.6683 32.8279 39.6893 27.6932 39.6886C25.1338 39.6883 23.0004 39.7164 22.9523 39.7511C22.6459 39.9722 22.6681 40.5247 22.9909 40.7113C23.0967 40.7725 24.6234 40.8026 27.6283 40.8028C31.958 40.8031 32.1166 40.8088 32.3672 40.9739C32.7811 41.2465 32.9425 41.6141 32.9429 42.2848L32.9432 42.8648H25.4261H17.9091V42.0446C17.9091 41.2882 17.9243 41.2079 18.1044 41.0134C18.2959 40.8064 18.3242 40.8025 19.6193 40.8025C20.9279 40.8025 20.9407 40.8006 21.1419 40.5834C21.2992 40.4134 21.3331 40.3121 21.293 40.1322C21.1996 39.713 21.0915 39.6854 19.5445 39.6855C18.2397 39.6856 18.0766 39.7023 17.7662 39.8683ZM48.8956 41.0134C49.0757 41.2079 49.0909 41.2882 49.0909 42.0446V42.8648H41.5739H34.0568L34.0571 42.2848C34.0575 41.6141 34.2189 41.2465 34.6328 40.9739C34.8862 40.807 35.0472 40.8031 41.7962 40.8028L48.7004 40.8025L48.8956 41.0134ZM36.9041 44.6908L36.8807 45.3138L36.0356 45.3381C35.0678 45.3659 35.0336 45.3874 34.8163 46.1086L34.6804 46.5598H33.5H32.3196L32.1837 46.1086C31.9326 45.2754 32.8161 45.3605 24.1614 45.3357L16.517 45.3138L16.4937 44.6908L16.4703 44.0678H26.6989H36.9275L36.9041 44.6908ZM40.3409 45.7864C40.3409 46.7316 40.324 47.505 40.3034 47.505C40.2828 47.505 40.0635 47.4083 39.8162 47.2902C39.5689 47.172 39.2681 47.0753 39.1477 47.0753C39.0274 47.0753 38.7265 47.172 38.4792 47.2902C38.2319 47.4083 38.0127 47.505 37.992 47.505C37.9714 47.505 37.9545 46.7316 37.9545 45.7864V44.0678H39.1477H40.3409V45.7864Z" fill="#7641C5"/>
</svg>
