<svg width="67" height="67" viewBox="0 0 67 67" fill="none" xmlns="http://www.w3.org/2000/svg">
<circle cx="33.5" cy="33.5" r="33.5" fill="#F8F8F8"/>
<path fill-rule="evenodd" clip-rule="evenodd" d="M43.3018 17.181C43.1308 17.3538 43.1228 17.4826 43.1228 20.0315V22.701H39.9571C36.89 22.701 36.7841 22.7068 36.5556 22.8885L36.3197 23.076V30.6298V38.1836L36.8792 38.1567L37.4386 38.1298L37.4615 31.0035L37.4844 23.8773H40.3036H43.1228V32.4261V40.9748L41.9815 41.0001L40.8402 41.0255L40.8135 41.591L40.7869 42.1566H45.6249H50.4629V42.7448V43.333H45.6292H40.7954V43.876V44.4189H45.8977H51V30.8904C51 17.4826 50.9984 17.3603 50.821 17.181C50.6479 17.0061 50.5226 17 47.0614 17C43.6001 17 43.4748 17.0061 43.3018 17.181ZM49.8363 20.1672V22.158H47.0166H44.1969V20.1672V18.1764H47.0166H49.8363V20.1672ZM25.7002 23.428C25.5458 23.4759 25.2235 23.6476 24.9841 23.8094C24.4528 24.1683 24.4235 24.3178 24.6727 25.3977C24.7727 25.8306 24.8808 26.4496 24.913 26.7731L24.9715 27.3613L23.6411 27.3614C22.519 27.3615 22.2125 27.3927 21.6829 27.5611C19.8436 28.1459 19.0997 29.4047 18.8576 32.342C18.7456 33.7027 18.8217 34.4603 19.1731 35.4819C19.4596 36.3148 20.1219 37.3699 20.821 38.1071L21.4002 38.7179L20.468 38.7193C18.5557 38.722 17.1875 39.3502 16.2529 40.6545L16 41.0074V43.2944V45.5814L16.3083 45.9897C16.7516 46.5769 17.2268 46.9982 17.7903 47.3039C18.8038 47.8536 18.8544 47.8576 24.7629 47.8576H30.1432V48.308C30.1432 48.6861 30.1784 48.7816 30.3626 48.9037C30.6452 49.0909 30.8296 49.0294 31.6386 48.4781C31.9933 48.2364 32.3259 48.0386 32.3779 48.0386C32.4299 48.0386 32.8109 48.2663 33.2248 48.5448C33.7776 48.9167 34.0266 49.0351 34.1633 48.9913C34.4889 48.8868 34.6189 48.6777 34.6189 48.2584V47.8576H37.2905C39.7649 47.8576 39.9729 47.8454 40.1102 47.6921C40.2343 47.5534 40.2583 47.3042 40.2583 46.1537C40.2583 44.9015 40.2426 44.7649 40.0793 44.5999C39.96 44.4793 39.7809 44.4189 39.5422 44.4189H39.1841V43.2878V42.1566H39.5222C39.7083 42.1566 39.9499 42.0932 40.0593 42.0157C40.2508 41.8803 40.2583 41.8203 40.2583 40.4373C40.2583 39.0543 40.2508 38.9943 40.0593 38.8588C39.8867 38.7366 39.3469 38.7179 35.9769 38.7179H32.0933L32.6114 38.1524C33.5473 37.1308 34.2002 35.9322 34.4842 34.7142C34.8207 33.2718 34.5187 30.5271 33.8854 29.2724C33.1921 27.8985 31.684 27.2406 29.4528 27.3383L28.4492 27.3824L28.5007 26.9646C28.529 26.7348 28.6324 26.1396 28.7303 25.6419C28.8283 25.1442 28.9287 24.6271 28.9535 24.4928C29.0086 24.1938 28.6861 23.8535 28.0844 23.5757C27.6283 23.3652 26.1894 23.276 25.7002 23.428ZM49.8363 23.8773V24.4203H47.0166H44.1969V23.8773V23.3344H47.0166H49.8363V23.8773ZM27.2226 24.5059C27.4132 24.5506 27.6055 24.6239 27.6499 24.6688C27.6978 24.7172 27.6788 25.0051 27.6032 25.3771C27.5332 25.7218 27.4297 26.4315 27.3732 26.9541C27.2803 27.8137 27.2474 27.9236 27.0285 28.1074C26.7309 28.3571 26.6683 28.3569 26.3726 28.1046C26.1649 27.9274 26.1308 27.8154 26.0775 27.135C26.0444 26.712 25.9445 25.9859 25.8554 25.5216L25.6937 24.6772L25.882 24.6049C26.3777 24.4146 26.7242 24.389 27.2226 24.5059ZM38.1598 25.2549C38.0369 25.4323 38.0205 26.2065 38.0205 31.8198V38.1836L38.5799 38.1567L39.1394 38.1298L39.1624 32.1347L39.1854 26.1396H40.3037H41.422V32.4231V38.7065L41.1311 38.7349L40.8402 38.7632V39.3061V39.8491L41.4747 39.8754C41.996 39.897 42.1478 39.8702 42.3251 39.725L42.5409 39.5484V32.4295C42.5409 25.487 42.5366 25.3075 42.3672 25.1821C42.2297 25.0806 41.7866 25.0537 40.2463 25.0537C38.3356 25.0537 38.2965 25.0575 38.1598 25.2549ZM49.8363 29.5783V33.5599H47.0166H44.1969V29.5783V25.5967H47.0166H49.8363V29.5783ZM25.2702 28.7819C25.5193 28.9135 25.8957 29.1668 26.1066 29.3449C26.3176 29.523 26.5875 29.6688 26.7067 29.6688C26.8297 29.6688 27.132 29.497 27.4062 29.2712C27.6717 29.0525 28.1243 28.784 28.4119 28.6745C28.8787 28.4968 29.0644 28.4792 30.1432 28.5111C31.123 28.5399 31.4279 28.582 31.7545 28.7335C32.9288 29.2781 33.4552 30.6441 33.4552 33.1465C33.4552 34.0821 33.4185 34.4542 33.288 34.8373C32.7458 36.4308 31.5794 37.8772 30.367 38.4598C29.7 38.7802 29.2327 38.7884 28.4078 38.4943L27.7913 38.2743L27.3791 38.4962C26.8553 38.778 26.5421 38.776 26.0554 38.4876L25.6667 38.2573L25.0352 38.4876C24.6879 38.6143 24.2147 38.717 23.9838 38.716C22.5596 38.7093 20.6085 36.6446 20.0808 34.586C19.7195 33.1767 20.0753 30.4357 20.7399 29.5083C21.3145 28.7063 21.9683 28.4803 23.6087 28.5162C24.7136 28.5405 24.856 28.5632 25.2702 28.7819ZM31.3069 30.1795C31.0854 30.2578 30.8927 30.3323 30.8788 30.3451C30.8427 30.3784 31.0627 31.2389 31.1284 31.3212C31.1777 31.3828 32.0969 31.2531 32.1757 31.1734C32.1934 31.1556 32.1553 30.9017 32.0912 30.6094C31.9589 30.0067 31.8951 29.9718 31.3069 30.1795ZM31.6521 32.4489L31.2365 32.4832L31.198 33.4966C31.1543 34.6497 30.9557 35.3561 30.4514 36.1531C30.282 36.421 30.1432 36.6559 30.1432 36.6752C30.1432 36.6944 30.345 36.8567 30.5916 37.0358L31.04 37.3615L31.3458 36.8783C32.0201 35.8126 32.3226 34.7386 32.3307 33.3811C32.3369 32.3276 32.3813 32.3886 31.6521 32.4489ZM49.8363 35.2793V35.8222H47.0166H44.1969V35.2793V34.7363H47.0166H49.8363V35.2793ZM49.8363 38.9894V40.9802H47.0166H44.1969V38.9894V36.9986H47.0166H49.8363V38.9894ZM39.1841 40.4357V40.9772L29.3152 41.0013L19.4463 41.0255L18.9265 41.2836C18.5196 41.4855 18.3353 41.65 18.0783 42.0413C17.7967 42.4703 17.7452 42.6295 17.7153 43.1641C17.6855 43.6982 17.7145 43.8572 17.9192 44.2801C18.0546 44.5601 18.3117 44.8964 18.5136 45.0581C19.1834 45.5944 19.1945 45.5953 24.9209 45.5953H30.1432V46.1402V46.6852L24.571 46.6606L18.9987 46.6359L18.485 46.3809C15.7165 45.0066 16.0001 41.1239 18.949 40.0255C19.2039 39.9307 21.2513 39.9058 29.2257 39.9007L39.1841 39.8943V40.4357ZM38.0205 42.4281V42.6996H28.9795H19.9386V43.2878V43.876H25.0409H30.1432V44.1474V44.4189L24.8843 44.4185C19.7674 44.4183 19.6174 44.4133 19.329 44.2356C18.7941 43.9059 18.6583 43.1923 19.0232 42.6292C19.3381 42.1435 18.9059 42.1641 28.8229 42.1602L38.0205 42.1566V42.4281ZM33.4552 45.6057V47.3354L33.2091 47.1755C33.0737 47.0874 32.8834 46.9605 32.7863 46.8936C32.5001 46.696 32.0987 46.7531 31.7162 47.0457C31.5227 47.1936 31.3314 47.3146 31.291 47.3146C31.2505 47.3146 31.2174 46.5409 31.2174 45.5953V43.876H32.3363H33.4552V45.6057ZM38.0205 44.1474V44.4189H36.3197H34.6189V44.1474V43.876H36.3197H38.0205V44.1474ZM39.1841 46.1382V46.6812H36.9015H34.6189V46.1382V45.5953H36.9015H39.1841V46.1382Z" fill="#7641C5"/>
</svg>
