<svg width="67" height="67" viewBox="0 0 67 67" fill="none" xmlns="http://www.w3.org/2000/svg">
<circle cx="33.5" cy="33.5" r="33.5" fill="#F8F8F8"/>
<path fill-rule="evenodd" clip-rule="evenodd" d="M22.8332 17.0368C22.7935 17.063 22.71 17.0848 22.6478 17.0852C22.5404 17.0859 22.2675 17.1882 22.1105 17.2866C22.0707 17.3114 22.0066 17.3468 21.968 17.3652C21.7724 17.458 21.195 18.0413 21.195 18.1459C21.195 18.1833 21.1775 18.2139 21.156 18.2139C21.1078 18.2139 20.9789 18.5085 20.8985 18.8024C20.858 18.9506 20.833 19.5218 20.8224 20.5427C20.8085 21.8962 20.8157 22.0793 20.8883 22.2165C21.1049 22.6259 21.7018 22.6354 21.9353 22.2331C22.0034 22.1158 22.0141 21.9035 22.0141 20.6719C22.0141 19.2776 22.0166 19.2408 22.1287 18.9828C22.2556 18.6907 22.5902 18.3677 22.8471 18.2892C23.0848 18.2165 48.6284 18.1939 48.877 18.2661C49.2898 18.3859 49.5537 18.6097 49.7233 18.9836C49.8144 19.1843 49.8166 19.3753 49.8156 26.8544C49.8146 34.2395 49.8112 34.5266 49.7244 34.7156C49.5645 35.0634 49.2911 35.2999 48.906 35.4232C48.7966 35.4583 47.6877 35.4757 45.5646 35.4757C42.0337 35.4757 42.2012 35.4602 42.0404 35.8034C41.8904 36.1234 41.9996 36.4603 42.3032 36.6135C42.4536 36.6895 42.7543 36.6972 45.6568 36.6993C49.1789 36.7019 49.1966 36.7006 49.7203 36.3997C49.76 36.3769 49.8383 36.3379 49.8941 36.3131C49.95 36.2883 50.1234 36.1475 50.2796 36.0002C50.5378 35.7565 50.7108 35.4817 50.9459 34.9411C51.0183 34.7747 51.0179 18.9135 50.9455 18.7485C50.7365 18.2722 50.5851 18.011 50.4021 17.8101C50.1734 17.5593 49.7244 17.2331 49.6077 17.2331C49.568 17.2331 49.5284 17.2114 49.5195 17.1848C49.4648 17.0203 49.1951 17.0167 35.9636 17.0028C27.5624 16.994 22.8797 17.0061 22.8332 17.0368ZM30.8341 20.7507C30.5275 20.8735 30.4019 21.3197 30.5871 21.6287C30.7881 21.9643 30.2062 21.9409 38.3298 21.9409C44.059 21.9409 45.6978 21.9275 45.803 21.8802C46.1637 21.7176 46.3022 21.3405 46.12 21.0173C45.9359 20.691 46.549 20.7145 38.3413 20.7188C34.2509 20.7209 30.8727 20.7353 30.8341 20.7507ZM23.1946 23.2002C22.7918 23.2671 21.9766 23.5483 21.8695 23.6572C21.8563 23.6707 21.7425 23.7365 21.6166 23.8033C21.4907 23.8702 21.3877 23.9419 21.3877 23.9627C21.3877 23.9835 21.366 24.0005 21.3395 24.0005C21.313 24.0005 21.2518 24.0391 21.2035 24.0863C21.1553 24.1336 21.0414 24.2415 20.9506 24.3263C20.6589 24.5985 20.4518 24.8507 20.2427 25.1885C20.1304 25.3699 20.0378 25.5355 20.0369 25.5563C20.036 25.5772 19.9934 25.6826 19.9422 25.7905C19.8909 25.8983 19.8483 26.0234 19.8474 26.0684C19.8465 26.1133 19.8296 26.1574 19.8097 26.1664C19.7324 26.2014 19.605 27.0485 19.607 27.5133C19.6093 28.0217 19.8075 29.2072 19.9422 29.5174C19.9656 29.5714 19.9996 29.692 20.0178 29.7855C20.0359 29.8791 20.0678 29.9894 20.0885 30.0307C20.1094 30.0721 20.1625 30.2163 20.2066 30.3511C20.3123 30.6736 20.3272 30.7092 20.597 31.2829C20.8019 31.7184 21.2161 32.4675 21.2885 32.5334C21.3033 32.5468 21.3852 32.6495 21.4706 32.7616C21.6522 33.0001 21.6298 33.0223 21.2031 33.0263C20.7308 33.0306 19.9265 33.1649 19.7381 33.2709C19.692 33.2968 19.6305 33.318 19.6013 33.318C19.5721 33.318 19.4077 33.3842 19.2359 33.4651C19.0641 33.546 18.9117 33.6122 18.8973 33.6122C18.8538 33.6122 18.1847 34.0713 18.1674 34.113C18.1585 34.1343 18.1283 34.1517 18.1001 34.1517C18.046 34.1517 17.0993 35.0957 17.0993 35.1497C17.0993 35.167 17.0017 35.3161 16.8824 35.481C16.7632 35.6458 16.6656 35.8114 16.6656 35.8489C16.6656 35.8864 16.6487 35.9171 16.628 35.9171C16.5924 35.9171 16.5493 36.0067 16.3924 36.4075C16.1964 36.9079 16.125 37.1792 16.0344 37.7663C16.0057 37.9529 15.9936 39.7298 16.0033 42.3515C16.0177 46.293 16.0257 46.6497 16.1035 46.8528C16.2437 47.2187 16.3181 47.3659 16.5026 47.6428C16.7413 48.0008 17.2853 48.5202 17.4218 48.5202C17.4564 48.5202 17.485 48.5367 17.4853 48.5569C17.4856 48.5772 17.5777 48.6348 17.6901 48.6849C17.8024 48.7351 17.9357 48.7982 17.9863 48.8251C18.0369 48.852 18.1995 48.8976 18.3477 48.9264C18.7136 48.9975 27.1205 49.0314 27.1886 48.9621C27.2154 48.9348 27.2776 48.9125 27.3267 48.9125C27.5001 48.9125 27.8355 48.7165 28.1034 48.4586C28.2525 48.3151 28.3745 48.1754 28.3745 48.1481C28.3745 48.1208 28.3993 48.0732 28.4296 48.0423C28.46 48.0114 28.5251 47.8699 28.5742 47.7278C28.6581 47.4854 28.6636 47.2507 28.6636 43.9001C28.6636 41.9369 28.6809 40.3306 28.7021 40.3306C28.7233 40.3306 28.8748 40.4299 29.0387 40.5513C29.2026 40.6727 29.3501 40.772 29.3666 40.772C29.3831 40.772 29.4787 40.8382 29.5791 40.9191C29.6795 41 29.7856 41.0662 29.8149 41.0662C29.8442 41.0662 29.8682 41.0883 29.8682 41.1152C29.8682 41.1422 29.8992 41.1643 29.9371 41.1643C29.9749 41.1643 30.0345 41.1921 30.0696 41.2262C30.1525 41.3067 30.3548 41.3979 30.7056 41.5128C31.1066 41.6442 32.0055 41.643 32.4126 41.5106C32.7963 41.3858 33.1972 41.1839 33.3529 41.037C33.4216 40.9721 33.4987 40.9191 33.5241 40.9191C33.5496 40.9191 33.5776 40.9022 33.5865 40.8815C33.5953 40.8608 33.7109 40.7559 33.8434 40.6485C33.9759 40.5411 34.0952 40.4411 34.1084 40.4264C34.1217 40.4117 34.2735 40.291 34.4457 40.1582C34.618 40.0254 34.7822 39.8941 34.8107 39.8663C34.8392 39.8384 34.9332 39.7605 35.0196 39.6931C35.1061 39.6257 35.202 39.5484 35.2329 39.5215C35.2637 39.4945 35.4733 39.3226 35.6985 39.1393C35.9238 38.9561 36.1515 38.7678 36.2045 38.7208C36.2575 38.6738 36.3984 38.5594 36.5177 38.4667C36.6369 38.3739 36.7454 38.2854 36.7586 38.2699C36.7719 38.2545 36.9236 38.1336 37.0959 38.0012C37.2682 37.8689 37.4199 37.748 37.4332 37.7326C37.4464 37.7171 37.5549 37.6288 37.6741 37.5363C37.7934 37.4437 37.938 37.3222 37.9954 37.2662C38.0529 37.2102 38.2011 37.11 38.3247 37.0434C38.4484 36.9769 38.5857 36.9001 38.6299 36.8728C38.8263 36.7515 39.4276 36.3753 39.5447 36.3005C39.6157 36.2551 39.7537 36.1734 39.8513 36.119C40.2656 35.8881 40.7506 35.3775 40.9908 34.9194C41.2549 34.4157 41.3843 33.842 41.3843 33.1755C41.3843 32.7699 41.2731 32.2391 41.1882 32.2391C41.1635 32.2391 41.1434 32.2127 41.1434 32.1805C41.1434 32.1 40.899 31.8468 40.8212 31.8468C40.7864 31.8468 40.7579 31.8293 40.7579 31.8079C40.7579 31.7672 40.2745 31.6016 40.1556 31.6016C40.0367 31.6016 39.5533 31.7672 39.5533 31.8079C39.5533 31.8293 39.5295 31.8468 39.5004 31.8468C39.4574 31.8468 38.7903 32.2388 38.4932 32.4386C38.4535 32.4653 38.383 32.5001 38.3366 32.516C38.2903 32.5318 38.2523 32.5643 38.2523 32.5881C38.2523 32.6119 38.2284 32.6314 38.1991 32.6314C38.1698 32.6314 38.056 32.6932 37.9461 32.7686C37.8363 32.8441 37.7139 32.9216 37.6741 32.9408C37.6344 32.9601 37.5368 33.0182 37.4573 33.07C37.3778 33.1218 37.226 33.2122 37.12 33.271C37.014 33.3297 36.9164 33.3919 36.9032 33.4092C36.8792 33.4405 36.7411 33.5219 36.4214 33.6934C36.3286 33.7432 36.2419 33.798 36.2286 33.8153C36.2153 33.8326 36.1177 33.8944 36.0117 33.9527C35.7733 34.0838 35.6337 34.1685 35.6022 34.2011C35.5411 34.2644 34.9794 34.593 34.9324 34.593C34.9033 34.593 34.8794 34.6125 34.8794 34.6363C34.8794 34.6601 34.8414 34.6926 34.7951 34.7084C34.7036 34.7397 34.5326 34.8444 34.4939 34.8929C34.4807 34.9095 34.4211 34.9385 34.3614 34.9575C34.3018 34.9764 34.253 35.0125 34.253 35.0376C34.253 35.0628 34.2299 35.0834 34.2016 35.0834C34.1733 35.0834 33.9077 35.2339 33.6113 35.4178C33.3149 35.6017 33.04 35.7671 33.0002 35.7854C32.9604 35.8036 32.7582 35.9289 32.5507 36.0639C32.3433 36.1989 32.1562 36.3094 32.135 36.3094C32.1138 36.3094 32.0695 36.3425 32.0365 36.3829C31.9383 36.5034 31.8767 36.4698 31.6992 36.1989C31.6065 36.0574 31.5187 35.9306 31.5042 35.9171C31.4896 35.9036 31.4249 35.8153 31.3603 35.7209C31.0634 35.2871 30.4179 34.6304 30.0106 34.3478C29.9523 34.3074 29.8802 34.251 29.8502 34.2225C29.8204 34.194 29.7634 34.1551 29.7236 34.1361C29.6839 34.1171 29.5863 34.0574 29.5068 34.0034C29.4273 33.9495 29.3243 33.8919 29.2779 33.8757C29.2316 33.8593 29.1936 33.8282 29.1936 33.8066C29.1936 33.7849 29.1286 33.7526 29.0491 33.7348C28.9696 33.7171 28.9045 33.6876 28.9045 33.6694C28.9045 33.6512 28.8341 33.6112 28.7479 33.5807C28.6618 33.5502 28.407 33.4589 28.1817 33.3778C27.6302 33.1792 27.1838 33.082 26.6639 33.0471C26.4254 33.0311 26.1811 33.0077 26.121 32.9952L26.0118 32.9724L26.1119 32.8632C26.4312 32.5148 27.3107 30.9438 27.316 30.7123C27.3168 30.6755 27.3493 30.6025 27.3882 30.5502C27.4271 30.4978 27.459 30.4084 27.459 30.3516C27.459 30.2947 27.4779 30.2271 27.501 30.2015C27.5542 30.1425 27.7481 29.5053 27.7481 29.3895C27.7481 29.3417 27.7698 29.2889 27.7963 29.2722C27.8228 29.2556 27.8444 29.1878 27.8444 29.1215C27.8444 29.0552 27.8758 28.8745 27.9141 28.7198C28.0475 28.1811 28.1067 27.459 28.0452 27.1194C28.0143 26.9487 27.9891 26.7453 27.9892 26.6675C27.9893 26.5328 27.7152 25.6704 27.6559 25.6188C27.6403 25.6053 27.5847 25.506 27.5323 25.3981C27.1944 24.7032 26.4403 23.9633 25.7243 23.6244C25.3154 23.4308 25.0795 23.3403 24.7847 23.2641C24.5385 23.2003 23.4554 23.1568 23.1946 23.2002ZM24.6643 24.4949C24.9322 24.5926 25.4533 24.8495 25.523 24.9184C25.558 24.953 25.6014 24.9817 25.6193 24.9821C25.6739 24.9835 26.0762 25.3864 26.2312 25.5948C26.7375 26.2756 26.9138 27.0295 26.7987 28.0217C26.7461 28.4752 26.6605 28.9229 26.5832 29.1496C26.5694 29.1901 26.4984 29.4108 26.4255 29.64C26.2813 30.093 26.2371 30.2024 25.9598 30.7925C25.7817 31.1718 25.5956 31.5226 25.5182 31.6254C25.4976 31.6528 25.4063 31.7842 25.3154 31.9174C25.0821 32.2591 24.748 32.598 24.4572 32.7878C24.228 32.9373 24.1777 32.9501 23.8219 32.9495C23.48 32.9489 23.4106 32.9326 23.2187 32.8084C23.0995 32.7312 22.8769 32.5355 22.7242 32.3734C22.4445 32.0766 22.0141 31.4636 22.0141 31.3621C22.0141 31.332 21.9975 31.3074 21.9773 31.3074C21.9571 31.3074 21.8873 31.1915 21.8223 31.0499C21.7574 30.9083 21.6913 30.7814 21.6754 30.7679C21.6596 30.7545 21.5964 30.605 21.535 30.4359C21.4736 30.2668 21.4045 30.1165 21.3814 30.102C21.3584 30.0875 21.3395 30.0353 21.3395 29.986C21.3395 29.9368 21.3071 29.8333 21.2675 29.756C21.228 29.6787 21.1954 29.5703 21.1953 29.515C21.1951 29.4597 21.1755 29.3935 21.1518 29.3679C21.0533 29.2614 20.8556 28.1997 20.8252 27.6144C20.7999 27.1273 20.8678 26.7032 21.032 26.3225C21.0686 26.2375 21.0986 26.1537 21.0986 26.1362C21.0986 26.1188 21.1724 25.9871 21.2626 25.8436C21.4405 25.5605 21.7941 25.1741 22.0623 24.9698C22.283 24.8017 22.8035 24.54 22.9173 24.54C22.9665 24.54 23.0273 24.5196 23.0525 24.4947C23.0776 24.4698 23.1633 24.4386 23.2428 24.4254C23.4979 24.3829 24.4899 24.4314 24.6643 24.4949ZM30.7776 24.4754C30.3831 24.7246 30.4056 25.3402 30.8166 25.5396C30.9646 25.6115 31.6618 25.6185 38.3624 25.6152C45.2815 25.6119 45.7541 25.6063 45.8896 25.5265C45.9691 25.4796 46.0555 25.3929 46.0817 25.3339C46.1079 25.2748 46.1458 25.2265 46.166 25.2265C46.2359 25.2265 46.2025 24.8416 46.12 24.6953C45.936 24.369 46.5483 24.3927 38.3413 24.3942C31.5512 24.3953 30.8931 24.4024 30.7776 24.4754ZM30.8028 28.1565C30.401 28.3525 30.3908 28.9792 30.7856 29.2165C30.9076 29.2899 31.5574 29.2968 38.3487 29.2968C46.5471 29.2968 45.936 29.3206 46.12 28.9943C46.2063 28.8413 46.2346 28.4631 46.1598 28.4631C46.1362 28.4631 46.1044 28.4125 46.0891 28.3507C46.072 28.281 45.9905 28.2064 45.875 28.1545C45.7017 28.0767 45.1702 28.0712 38.3205 28.0772C31.9061 28.0827 30.933 28.093 30.8028 28.1565ZM40.1797 33.1276C40.1797 33.5055 40.0757 34.0314 39.9498 34.2905C39.8103 34.5775 39.3317 35.0643 39.1413 35.1129C39.0764 35.1295 39.0233 35.1602 39.0233 35.1811C39.0233 35.202 38.9853 35.2324 38.939 35.2487C38.808 35.2946 38.4251 35.5331 38.3856 35.5934C38.3661 35.6231 38.3499 35.2662 38.3494 34.8004L38.3487 33.9534L38.4692 33.8975C38.5354 33.8668 38.5896 33.8231 38.5896 33.8005C38.5896 33.7779 38.6101 33.7593 38.6352 33.7593C38.6603 33.7593 39.0015 33.5627 39.3936 33.3224C39.7856 33.082 40.1229 32.8957 40.143 32.9084C40.1632 32.9211 40.1797 33.0197 40.1797 33.1276ZM27.1263 34.3301C27.1635 34.3608 27.3078 34.4015 27.4469 34.4205C27.586 34.4395 27.7119 34.4751 27.7268 34.4995C27.7416 34.524 27.7889 34.544 27.832 34.544C27.979 34.544 28.8318 34.9981 29.1936 35.2691C29.7052 35.6523 30.2803 36.2606 30.6146 36.7722C31.1005 37.5158 31.3306 37.6795 31.8927 37.6814C32.2077 37.6825 32.2981 37.6507 32.7111 37.3937C32.8038 37.336 32.9177 37.2755 32.9641 37.2592C33.0104 37.243 33.0484 37.2126 33.0484 37.1917C33.0484 37.1708 33.1026 37.1398 33.1688 37.1229C33.2351 37.106 33.2893 37.0705 33.2893 37.044C33.2893 37.0176 33.3108 36.9959 33.3372 36.9959C33.3635 36.9959 33.8311 36.7201 34.3763 36.3829C34.9216 36.0458 35.3879 35.77 35.4127 35.77C35.4374 35.77 35.4576 35.7483 35.4576 35.7218C35.4576 35.6954 35.5118 35.6599 35.5781 35.643C35.6443 35.6261 35.6985 35.5951 35.6985 35.5742C35.6985 35.5533 35.7365 35.5223 35.7829 35.5052C35.8292 35.4881 35.9113 35.4469 35.9651 35.4136C36.4829 35.0938 37.0848 34.7401 37.1113 34.7401C37.1293 34.7401 37.1441 35.1104 37.1441 35.5629C37.1441 36.4766 37.1798 36.3715 36.7585 36.6979C36.6393 36.7903 36.5201 36.8896 36.4936 36.9186C36.4671 36.9477 36.3153 37.0707 36.1563 37.1921C35.9973 37.3135 35.8455 37.4365 35.819 37.4656C35.7925 37.4946 35.6732 37.5936 35.554 37.6855C35.4347 37.7775 35.3129 37.8751 35.2833 37.9025C35.1381 38.0367 34.9818 38.1647 34.9159 38.2034C34.8431 38.2462 34.6117 38.4331 34.2256 38.7614C34.1145 38.8558 33.9505 38.9922 33.8613 39.0645C33.7719 39.1368 33.5037 39.3542 33.2652 39.5475C33.0267 39.7408 32.7865 39.9354 32.7314 39.9799C32.3679 40.2738 32.1598 40.3466 31.6214 40.3685C31.1966 40.3857 31.1043 40.3744 30.9016 40.2804C30.6845 40.1797 30.3082 39.9507 30.2537 39.8861C30.2404 39.8704 30.1971 39.8428 30.1573 39.8247C30.0688 39.7845 29.901 39.6782 29.8682 39.6418C29.8549 39.6271 29.5839 39.4395 29.2659 39.225C28.9479 39.0104 28.6804 38.8184 28.6716 38.7981C28.6628 38.7779 28.6275 38.7614 28.5932 38.7614C28.5589 38.7614 28.5067 38.7318 28.4773 38.6957C28.4479 38.6596 28.3343 38.6028 28.225 38.5695C27.9352 38.4811 27.7304 38.5713 27.5427 38.87C27.4649 38.9937 27.459 39.2969 27.4588 43.1609C27.4586 47.208 27.4561 47.3229 27.3639 47.4768C27.1738 47.7941 27.2713 47.7866 23.5614 47.7727L20.2072 47.7601L20.1831 43.9238L20.159 40.0876L20.0254 39.9516C19.9097 39.8339 19.8538 39.8157 19.6088 39.8157C19.3979 39.8157 19.3 39.8395 19.2241 39.9095C18.979 40.1352 18.9785 40.1404 18.9785 42.4959V44.6951H18.0847H17.1909L17.2053 41.1667C17.2165 38.4253 17.2332 37.6246 17.28 37.577C17.3131 37.5433 17.3402 37.4628 17.3402 37.3981C17.3402 37.2204 17.6427 36.5623 17.9471 36.0781C18.279 35.5501 18.9739 34.9537 19.6049 34.6554C20.053 34.4436 20.1767 34.3969 20.2891 34.3969C20.3527 34.3969 20.4253 34.3763 20.4505 34.3511C20.5315 34.2702 20.8287 34.2632 23.9703 34.2688C26.2001 34.2727 27.0775 34.2898 27.1263 34.3301ZM18.9785 46.8528C18.9785 47.3867 18.9595 47.7846 18.9342 47.7846C18.7946 47.7846 18.2516 47.612 18.0871 47.5153C17.8872 47.3979 17.4847 46.9926 17.4847 46.9088C17.4847 46.8826 17.4633 46.8537 17.4371 46.8446C17.3656 46.8202 17.1956 46.2916 17.1956 46.094V45.9211H18.0871H18.9785V46.8528Z" fill="#7641C5"/>
</svg>
