<svg width="34" height="34" viewBox="0 0 34 34" fill="none" xmlns="http://www.w3.org/2000/svg">
<path d="M4.25 10.625H29.75C30.923 10.625 31.875 9.673 31.875 8.5C31.875 7.327 30.923 6.375 29.75 6.375H4.25C3.077 6.375 2.125 7.327 2.125 8.5C2.125 9.673 3.077 10.625 4.25 10.625ZM29.75 14.875H4.25C3.077 14.875 2.125 15.827 2.125 17C2.125 18.173 3.077 19.125 4.25 19.125H29.75C30.923 19.125 31.875 18.173 31.875 17C31.875 15.827 30.923 14.875 29.75 14.875ZM29.75 23.375H4.25C3.077 23.375 2.125 24.327 2.125 25.5C2.125 26.673 3.077 27.625 4.25 27.625H29.75C30.923 27.625 31.875 26.673 31.875 25.5C31.875 24.327 30.923 23.375 29.75 23.375Z" fill="#F8F8F8"/>
</svg>
