<svg width="34" height="14" viewBox="0 0 34 14" fill="none" xmlns="http://www.w3.org/2000/svg">
<g id="Group 79">
<path id="Vector" d="M12 11.3333V12H0V11.3333L1.33333 10V6C1.33333 3.93333 2.68667 2.11333 4.66667 1.52667V1.33333C4.66667 0.979711 4.80714 0.640573 5.05719 0.390524C5.30724 0.140476 5.64638 0 6 0C6.35362 0 6.69276 0.140476 6.94281 0.390524C7.19286 0.640573 7.33333 0.979711 7.33333 1.33333V1.52667C9.31333 2.11333 10.6667 3.93333 10.6667 6V10L12 11.3333ZM7.33333 12.6667C7.33333 13.0203 7.19286 13.3594 6.94281 13.6095C6.69276 13.8595 6.35362 14 6 14C5.64638 14 5.30724 13.8595 5.05719 13.6095C4.80714 13.3594 4.66667 13.0203 4.66667 12.6667" fill="#7641C5"/>
<path id="Vector_2" d="M31.8333 2H23.1667C21.975 2 21 3 21 4.22222V9.77778C21 11 21.975 12 23.1667 12H31.8333C33.025 12 34 11 34 9.77778V4.22222C34 3 33.025 2 31.8333 2ZM32.7 5.22222L28.4208 8.16667C28.15 8.33333 27.825 8.44445 27.5 8.44445C27.175 8.44445 26.85 8.33333 26.5792 8.16667L22.3 5.22222C22.0833 5.05556 22.0292 4.72222 22.1917 4.44444C22.3542 4.22222 22.6792 4.16667 22.95 4.33333L27.2292 7.27778C27.3917 7.38889 27.6625 7.38889 27.825 7.27778L32.1042 4.33333C32.375 4.16667 32.7 4.22222 32.8625 4.5C32.9708 4.72222 32.9167 5.05556 32.7 5.22222Z" fill="#7641C5"/>
</g>
</svg>
