<svg width="14" height="14" viewBox="0 0 14 14" fill="none" xmlns="http://www.w3.org/2000/svg">
<path id="image 16 (Traced)" fill-rule="evenodd" clip-rule="evenodd" d="M6.17288 0.0193519C3.39734 0.260031 1.02034 2.19816 0.258361 4.84185C0.054845 5.54785 -0.00121522 5.9624 1.98562e-05 6.752C0.00119468 7.50087 0.0499047 7.87108 0.236521 8.54875C0.733322 10.3529 2.01572 11.9091 3.71105 12.765C4.24918 13.0367 4.99658 13.2749 5.67584 13.3912C6.18698 13.4788 7.21589 13.4859 7.70919 13.4052C9.24873 13.1537 10.5371 12.4894 11.5824 11.4083C12.3961 10.5667 12.9576 9.56938 13.2495 8.44687C13.4238 7.77693 13.4614 7.46854 13.46 6.72192C13.4586 6.00692 13.4122 5.62468 13.2524 5.01139C12.6725 2.78622 10.9118 0.965435 8.68367 0.286894C7.93901 0.0601119 6.93568 -0.0467967 6.17288 0.0193519ZM7.53966 1.00836C8.33977 1.12583 9.08913 1.39509 9.76414 1.80765C10.5228 2.27132 11.2534 3.01842 11.7162 3.80372C12.8269 5.68833 12.7643 8.07287 11.5562 9.89549C11.3441 10.2156 11.0253 10.6174 10.9836 10.6174C10.9711 10.6174 10.9356 10.5193 10.9047 10.3993C10.7721 9.88403 10.4603 9.28006 10.0898 8.82087C9.4592 8.03933 8.51768 7.48932 7.4682 7.28937C7.09991 7.21922 6.36043 7.21922 5.99214 7.28937C4.50123 7.5734 3.31541 8.5159 2.73429 9.8787C2.66332 10.0451 2.58201 10.2794 2.55355 10.3993C2.52511 10.5193 2.49104 10.6174 2.47788 10.6174C2.43582 10.6174 2.12109 10.2219 1.90348 9.89549C0.694462 8.08228 0.631895 5.69086 1.74412 3.80372C2.20384 3.02368 2.94386 2.26681 3.69542 1.80798C4.36242 1.40077 5.1366 1.12123 5.91683 1.00583C6.29082 0.950515 7.1548 0.951869 7.53966 1.00836ZM6.29338 1.96666C5.63665 2.09492 5.07301 2.47247 4.71059 3.02687C4.44282 3.43645 4.33666 3.80651 4.33666 4.33047C4.33666 4.85313 4.44306 5.22526 4.70833 5.63019C5.44009 6.74728 6.92956 7.06825 8.03561 6.3472C9.15034 5.62053 9.47092 4.13001 8.74976 3.02687C8.41038 2.5077 7.92991 2.16495 7.30298 1.99475C7.06798 1.93095 6.54991 1.91654 6.29338 1.96666ZM7.07533 2.93263C7.8468 3.1333 8.32628 3.92257 8.13117 4.6706C7.9951 5.19223 7.5949 5.59316 7.07533 5.72831C6.32154 5.92438 5.53188 5.44777 5.33035 4.67514C5.06186 3.64582 6.04456 2.66451 7.07533 2.93263ZM7.54574 8.15977C7.94217 8.26301 8.2353 8.39029 8.55368 8.59745C9.2089 9.02383 9.6867 9.6401 9.93513 10.3793C10.0178 10.6255 10.1037 11.095 10.1039 11.3024C10.104 11.4291 10.101 11.4328 9.87849 11.5779C8.42096 12.528 6.5898 12.7675 4.93025 12.2251C4.55352 12.1019 3.92601 11.8011 3.58544 11.5803L3.34764 11.4261L3.36568 11.1925C3.47316 9.80073 4.42185 8.6075 5.73835 8.2082C6.12589 8.09065 6.36019 8.06147 6.82054 8.07338C7.16224 8.08222 7.32012 8.10102 7.54574 8.15977Z" fill="#7641C5"/>
</svg>
