<svg width="11" height="11" viewBox="0 0 11 11" fill="none" xmlns="http://www.w3.org/2000/svg">
<path d="M9.28125 1.375H5.84375V1.03125C5.84375 0.940082 5.80753 0.852648 5.74307 0.788182C5.6786 0.723716 5.59117 0.6875 5.5 0.6875C5.40883 0.6875 5.3214 0.723716 5.25693 0.788182C5.19247 0.852648 5.15625 0.940082 5.15625 1.03125V1.375H1.71875C1.44525 1.375 1.18294 1.48365 0.989546 1.67705C0.796149 1.87044 0.6875 2.13275 0.6875 2.40625V7.90625C0.6875 8.17975 0.796149 8.44206 0.989546 8.63545C1.18294 8.82885 1.44525 8.9375 1.71875 8.9375H4.02187L3.48906 9.78656C3.46506 9.82491 3.44886 9.86762 3.4414 9.91224C3.43394 9.95686 3.43536 10.0025 3.44558 10.0466C3.4558 10.0907 3.47462 10.1323 3.50096 10.1691C3.52729 10.2058 3.56063 10.2371 3.59906 10.2609C3.63741 10.2849 3.68012 10.3011 3.72474 10.3086C3.76936 10.3161 3.81502 10.3146 3.85909 10.3044C3.90316 10.2942 3.94478 10.2754 3.98156 10.249C4.01834 10.2227 4.04957 10.1894 4.07344 10.1509L4.82969 8.9375H6.1875L6.94375 10.1509C6.96762 10.1894 6.99884 10.2227 7.03563 10.249C7.07241 10.2754 7.11403 10.2942 7.1581 10.3044C7.20217 10.3146 7.24783 10.3161 7.29245 10.3086C7.33707 10.3011 7.37978 10.2849 7.41812 10.2609C7.45655 10.2371 7.48989 10.2058 7.51623 10.1691C7.54257 10.1323 7.56139 10.0907 7.57161 10.0466C7.58183 10.0025 7.58325 9.95686 7.57578 9.91224C7.56832 9.86762 7.55213 9.82491 7.52812 9.78656L6.97812 8.9375H9.28125C9.55475 8.9375 9.81706 8.82885 10.0105 8.63545C10.2039 8.44206 10.3125 8.17975 10.3125 7.90625V2.40625C10.3125 2.13275 10.2039 1.87044 10.0105 1.67705C9.81706 1.48365 9.55475 1.375 9.28125 1.375ZM1.375 2.40625C1.375 2.31508 1.41122 2.22765 1.47568 2.16318C1.54015 2.09872 1.62758 2.0625 1.71875 2.0625H9.28125C9.37242 2.0625 9.45985 2.09872 9.52432 2.16318C9.58878 2.22765 9.625 2.31508 9.625 2.40625V6.875H8.9375V6.53125C8.9375 6.25775 8.82885 5.99544 8.63545 5.80205C8.44206 5.60865 8.17975 5.5 7.90625 5.5H7.21875C6.94525 5.5 6.68294 5.60865 6.48955 5.80205C6.29615 5.99544 6.1875 6.25775 6.1875 6.53125V6.875H1.375V2.40625ZM8.25 6.875H6.875V6.53125C6.875 6.44008 6.91122 6.35265 6.97568 6.28818C7.04015 6.22372 7.12758 6.1875 7.21875 6.1875H7.90625C7.99742 6.1875 8.08485 6.22372 8.14932 6.28818C8.21378 6.35265 8.25 6.44008 8.25 6.53125V6.875ZM9.625 7.90625C9.625 7.99742 9.58878 8.08485 9.52432 8.14932C9.45985 8.21378 9.37242 8.25 9.28125 8.25H1.71875C1.62758 8.25 1.54015 8.21378 1.47568 8.14932C1.41122 8.08485 1.375 7.99742 1.375 7.90625V7.5625H9.625V7.90625Z" fill="white"/>
</svg>
