<svg width="18" height="18" viewBox="0 0 18 18" fill="none" xmlns="http://www.w3.org/2000/svg">
<g id="Group 63">
<path id="Rectangle 34" d="M0 0H15C16.6569 0 18 1.34315 18 3V15C18 16.6569 16.6569 18 15 18H0V0Z" fill="#7641C5"/>
<path id="Layer 2" d="M12 8.00005C12.0016 7.09599 11.6968 6.21806 11.1354 5.5094C10.5741 4.80074 9.78917 4.30315 8.90874 4.09776C8.02832 3.89237 7.10428 3.99129 6.28728 4.3784C5.47028 4.7655 4.80851 5.41796 4.40987 6.22939C4.01122 7.04082 3.89922 7.96337 4.09211 8.84662C4.28501 9.72987 4.77142 10.5217 5.47206 11.0931C6.17269 11.6644 7.04621 11.9816 7.95021 11.9929C8.85421 12.0041 9.73536 11.7088 10.45 11.1551L13.65 14.3551L14.355 13.6501L11.155 10.4501C11.7008 9.74979 11.998 8.88787 12 8.00005ZM8 11.0001C7.40665 11.0001 6.82664 10.8241 6.33329 10.4945C5.83994 10.1648 5.45542 9.69628 5.22836 9.14811C5.0013 8.59993 4.94189 7.99673 5.05764 7.41478C5.1734 6.83284 5.45912 6.29829 5.87868 5.87873C6.29824 5.45918 6.83278 5.17345 7.41473 5.0577C7.99667 4.94194 8.59987 5.00135 9.14805 5.22842C9.69623 5.45548 10.1648 5.84 10.4944 6.33334C10.8241 6.82669 11 7.40671 11 8.00005C11 8.7957 10.6839 9.55877 10.1213 10.1214C9.55871 10.684 8.79565 11.0001 8 11.0001Z" fill="#F1F1F1"/>
</g>
</svg>
