<svg width="11" height="11" viewBox="0 0 11 11" fill="none" xmlns="http://www.w3.org/2000/svg">
<path id="image 18 (Traced)" fill-rule="evenodd" clip-rule="evenodd" d="M0 4.85547V9.71094H0.644531H1.28906V10.3555V11H6.14453H11V6.14453V1.28906H10.3555H9.71094V0.644531V0H4.85547H0V4.85547ZM9.06641 1.28906V1.93359H4.85547H0.644531V1.28906V0.644531H4.85547H9.06641V1.28906ZM10.3555 6.14453V10.3555H6.14453H1.93359V10.0337V9.71195L4.94678 9.70531L7.95996 9.69869L8.13184 9.64966C8.76107 9.47023 9.24634 9.06063 9.51786 8.47971C9.5631 8.3829 9.62229 8.22637 9.64941 8.13184L9.69869 7.95996L9.70531 4.94678L9.71195 1.93359H10.0337H10.3555V6.14453ZM9.06628 4.75342C9.06621 6.22069 9.05876 6.95544 9.04338 7.0108C9.01424 7.11567 8.88688 7.25725 8.77637 7.30757C8.69917 7.34274 8.62217 7.34675 8.02042 7.34718L7.35043 7.34766L7.34366 8.01904C7.33721 8.66076 7.33485 8.6943 7.29012 8.77783C7.2279 8.89408 7.09066 9.01523 6.98932 9.04338C6.93318 9.05895 5.91714 9.06621 3.77588 9.06628L0.644531 9.06641V5.82227V2.57812H4.85547H9.06641L9.06628 4.75342ZM2.23438 3.95312V4.27539H2.55664H2.87891V3.95312V3.63086H2.55664H2.23438V3.95312ZM3.56641 3.95312V4.27539H5.4248H7.2832V3.95312V3.63086H5.4248H3.56641V3.95312ZM2.23438 5.24219V5.56445H2.55664H2.87891V5.24219V4.91992H2.55664H2.23438V5.24219ZM3.56641 5.24219V5.56445H5.4248H7.2832V5.24219V4.91992H5.4248H3.56641V5.24219ZM2.23438 6.53125V6.85352H2.55664H2.87891V6.53125V6.20898H2.55664H2.23438V6.53125ZM3.56641 6.53125V6.85352H5.4248H7.2832V6.53125V6.20898H5.4248H3.56641V6.53125ZM9.00913 8.019C8.89634 8.39878 8.61783 8.73058 8.26074 8.91064C8.14075 8.97114 7.90672 9.05255 7.8928 9.03865C7.88943 9.03525 7.90038 8.99267 7.91716 8.94401C7.96916 8.79306 7.99187 8.59467 7.99202 8.28953L7.99219 7.99608L8.4165 7.98714C8.73939 7.98033 8.86136 7.96997 8.92676 7.94374C9.04752 7.89531 9.04621 7.89411 9.00913 8.019Z" fill="#F1F1F1"/>
</svg>
