<svg width="13" height="10" viewBox="0 0 13 10" fill="none" xmlns="http://www.w3.org/2000/svg">
<path d="M10.8333 0H2.16667C0.975 0 0 1 0 2.22222V7.77778C0 9 0.975 10 2.16667 10H10.8333C12.025 10 13 9 13 7.77778V2.22222C13 1 12.025 0 10.8333 0ZM11.7 3.22222L7.42083 6.16667C7.15 6.33333 6.825 6.44445 6.5 6.44445C6.175 6.44445 5.85 6.33333 5.57917 6.16667L1.3 3.22222C1.08333 3.05556 1.02917 2.72222 1.19167 2.44444C1.35417 2.22222 1.67917 2.16667 1.95 2.33333L6.22917 5.27778C6.39167 5.38889 6.6625 5.38889 6.825 5.27778L11.1042 2.33333C11.375 2.16667 11.7 2.22222 11.8625 2.5C11.9708 2.72222 11.9167 3.05556 11.7 3.22222Z" fill="#7641C5"/>
</svg>
