<svg width="12" height="14" viewBox="0 0 12 14" fill="none" xmlns="http://www.w3.org/2000/svg">
<path d="M12 11.3333V12H0V11.3333L1.33333 10V6C1.33333 3.93333 2.68667 2.11333 4.66667 1.52667V1.33333C4.66667 0.979711 4.80714 0.640573 5.05719 0.390524C5.30724 0.140476 5.64638 0 6 0C6.35362 0 6.69276 0.140476 6.94281 0.390524C7.19286 0.640573 7.33333 0.979711 7.33333 1.33333V1.52667C9.31333 2.11333 10.6667 3.93333 10.6667 6V10L12 11.3333ZM7.33333 12.6667C7.33333 13.0203 7.19286 13.3594 6.94281 13.6095C6.69276 13.8595 6.35362 14 6 14C5.64638 14 5.30724 13.8595 5.05719 13.6095C4.80714 13.3594 4.66667 13.0203 4.66667 12.6667" fill="#7641C5"/>
</svg>
