<svg width="78" height="28" viewBox="0 0 78 28" fill="none" xmlns="http://www.w3.org/2000/svg">
<path fill-rule="evenodd" clip-rule="evenodd" d="M9.03985 3.01657C9.01749 3.02438 8.84674 3.09435 8.66041 3.17203C8.01777 3.43994 7.77926 3.53787 7.6847 3.57261C7.63252 3.5918 7.30322 3.723 6.95291 3.86419C5.73045 4.35687 4.66079 4.77779 4.40762 4.86575C4.23338 4.92629 4.12475 4.98171 4.06485 5.04062C4.01663 5.08806 3.88993 5.28665 3.78328 5.48193C3.67665 5.67721 3.50487 5.97493 3.40153 6.14352C3.01682 6.77121 2.78683 7.13834 2.5816 7.45237C2.46557 7.62992 2.34529 7.82488 2.31428 7.88563C2.28328 7.94638 2.15868 8.15 2.0374 8.33809C1.57979 9.04774 1.36966 9.39856 1.36966 9.45285C1.36966 9.56499 1.52905 9.5916 1.73574 9.51398C1.8016 9.48924 1.87229 9.47535 1.89283 9.48311C1.93134 9.49764 2.76851 10.4338 2.84307 10.5457C2.87028 10.5866 2.88296 10.66 2.87938 10.7561C2.87269 10.9357 2.92795 11.0322 3.07171 11.0919C3.12689 11.1148 3.20148 11.1474 3.23747 11.1642C3.28436 11.1861 3.38816 11.3565 3.60336 11.765C3.93036 12.3856 3.96709 12.429 4.21541 12.4876C4.48091 12.5502 4.68429 12.4185 4.72023 12.1606C4.76173 11.8629 4.66947 11.7436 4.06466 11.3126C3.83247 11.1472 3.61895 10.9824 3.59019 10.9464C3.55894 10.9073 3.53791 10.8394 3.53791 10.7776C3.53791 10.6977 3.5175 10.6523 3.44814 10.5779C3.37234 10.4965 3.33626 10.4794 3.2163 10.4681L3.07423 10.4547L2.62849 9.93748C2.38334 9.65301 2.18275 9.41015 2.18275 9.39784C2.18275 9.35279 2.26588 9.31827 3.11404 9.01101C3.67779 8.80677 3.99872 8.7034 4.03851 8.71321C4.10315 8.72918 4.92017 9.64765 4.92017 9.70435C4.92017 9.72821 4.81577 9.73951 4.53395 9.7462C4.10011 9.75649 4.01357 9.78498 3.89451 9.95673C3.83878 10.0371 3.8323 10.0719 3.84279 10.2352C3.86385 10.5635 4.07165 10.8837 4.56439 11.3468C4.72498 11.4977 4.86439 11.6426 4.87418 11.6687C4.88393 11.6947 4.87342 11.7946 4.85079 11.8905C4.82818 11.9865 4.7852 12.241 4.7553 12.4562C4.66868 13.0797 4.54536 13.4884 4.2955 13.9803C4.00698 14.5483 3.69847 14.8799 2.84678 15.5376C2.2884 15.9688 1.83109 16.3578 1.57 16.6238C0.194002 18.0258 -0.29109 19.6894 0.168444 21.4306C0.375566 22.2154 0.818649 23.0325 1.39524 23.6931C2.10941 24.5113 3.46682 25.352 4.49549 25.6133C4.94619 25.7277 5.16052 25.7422 6.19402 25.7277C7.02107 25.7162 7.19806 25.7064 7.45432 25.6582C8.11466 25.5341 8.29959 25.5121 8.68751 25.5116C9.12864 25.511 9.24833 25.5348 9.66667 25.706C9.98817 25.8376 10.2078 25.8807 10.4534 25.8605C10.7564 25.8355 10.8667 25.7278 10.8086 25.5138C10.7833 25.4205 10.7854 25.3946 10.8213 25.3556C10.8939 25.2766 10.9978 25.3014 11.2514 25.4582C11.6677 25.7155 11.7076 25.7264 11.8217 25.6142C11.8852 25.5518 11.8901 25.5306 11.8815 25.355L11.8721 25.1637L12.0594 25.13C12.2763 25.0909 12.3659 25.0418 12.3896 24.9488C12.4164 24.8436 12.3843 24.7697 12.2525 24.6345C12.1849 24.5651 12.1296 24.4966 12.1296 24.4823C12.1296 24.468 12.1875 24.4302 12.2584 24.3984C12.3291 24.3666 12.3955 24.3363 12.4057 24.3311C12.4159 24.3259 12.4404 24.3776 12.46 24.446C12.482 24.5225 12.5238 24.591 12.5688 24.624L12.6419 24.6777L12.7991 24.617C13.0955 24.5024 13.1278 24.507 13.4353 24.7084C13.5852 24.8065 13.7474 24.8931 13.7958 24.9009C13.9765 24.9297 14.0677 24.8143 14.0971 24.5194C14.1247 24.2434 14.1158 24.2505 14.4493 24.2383C14.7248 24.2283 14.7404 24.2246 14.8023 24.1538C14.9169 24.0228 14.8936 23.9607 14.5607 23.5107C14.1299 22.9284 14.0456 22.6865 14.1955 22.4628C14.2907 22.3207 14.4244 21.9649 14.5012 21.6492C14.6993 20.8343 14.6992 20.0077 14.5009 19.1865C14.3815 18.6925 14.0655 17.8098 13.8769 17.4439C13.8401 17.3724 13.81 17.3038 13.81 17.2913C13.81 17.2788 13.9108 17.2012 14.0341 17.1189C14.4841 16.8182 15.1486 16.165 15.6232 15.5568C16.1158 14.9254 16.5491 14.1838 16.7228 13.6746C16.9462 13.0199 17.0438 12.22 16.9815 11.5546C16.8389 10.0305 16.181 8.65172 15.2536 7.93332C14.6727 7.48337 14.1185 7.23593 13.1832 7.00901C12.754 6.90486 11.5908 6.82268 11.1132 6.86277C10.4469 6.9187 10.2143 6.94823 10.0427 6.99866C9.94578 7.02713 9.68545 7.09244 9.46415 7.14383C9.24286 7.1952 9.03771 7.24992 9.00825 7.26543C8.97879 7.28095 8.88911 7.31043 8.80896 7.33095C8.62659 7.37768 8.18028 7.56411 7.99833 7.66961C7.83081 7.76672 7.24129 8.18076 7.12908 8.28011C7.08436 8.31972 6.91361 8.46332 6.74964 8.59923C6.37545 8.9094 6.15377 9.1268 5.88336 9.44883C5.5803 9.80977 5.43513 9.89952 5.43513 9.726C5.43513 9.63313 5.61323 9.4053 5.95662 9.0588C6.32948 8.68261 7.06777 8.11039 7.6725 7.72887C7.8059 7.64469 8.00465 7.51744 8.11412 7.44611C8.22359 7.37475 8.32588 7.31637 8.34143 7.31637C8.35699 7.31637 8.50795 7.25373 8.67692 7.17718L8.98413 7.03798L9.00153 6.92395C9.04397 6.64556 8.92109 6.40216 8.51985 5.96997C8.2589 5.68886 8.11835 5.49731 8.11835 5.42283C8.11835 5.33564 8.21023 5.15548 8.68193 4.31761C9.19754 3.40172 9.22898 3.3366 9.22931 3.18341C9.22966 3.02009 9.17285 2.97008 9.03985 3.01657ZM4.26696 6.25201C4.15719 6.47045 3.96592 6.76839 3.68625 7.15644C3.56474 7.32504 3.36274 7.63446 3.23736 7.84402C3.11198 8.05362 2.98501 8.26484 2.95519 8.3134C2.89589 8.41003 2.69858 8.63268 2.68508 8.61821C2.6731 8.60534 3.09125 7.85562 3.2778 7.5555C3.43199 7.30747 3.55049 7.13703 3.98752 6.53478C4.10813 6.3686 4.2362 6.18111 4.27211 6.11812C4.37014 5.94627 4.36597 6.055 4.26696 6.25201ZM15.3549 9.08903C15.3939 9.1352 15.382 9.21498 15.2944 9.49548C15.2284 9.70688 15.1748 9.74199 15.0968 9.62492C15.0277 9.52117 15.0174 9.38155 15.069 9.24862C15.1373 9.07272 15.2759 8.99536 15.3549 9.08903ZM13.236 10.101C13.4999 10.2273 13.5319 10.2702 13.4172 10.3441C13.3393 10.3944 13.2631 10.3875 12.9744 10.3044C12.8247 10.2612 12.754 10.2531 12.6873 10.2712C12.5334 10.313 12.4458 10.2045 12.5565 10.1094C12.7462 9.94628 12.9086 9.94428 13.236 10.101ZM9.20711 10.3193C9.31549 10.4157 9.23212 10.6204 8.97874 10.8799C8.80419 11.0586 8.64087 11.1334 8.34385 11.1703C8.21627 11.1862 8.18288 11.1779 7.97795 11.0792C7.73432 10.9618 7.52208 10.7837 7.52208 10.6967C7.52208 10.6311 7.57544 10.6366 7.94085 10.7391C8.24321 10.824 8.33051 10.8051 8.54978 10.6075C8.69903 10.473 8.90643 10.3241 8.98565 10.2945C9.06436 10.2652 9.15808 10.2756 9.20711 10.3193ZM3.29292 10.6211C3.32019 10.6355 3.35589 10.685 3.37226 10.7312C3.4353 10.909 3.25905 11.0592 3.11307 10.9521C3.07325 10.9228 3.0288 10.8803 3.01428 10.8577C2.97319 10.7936 3.01598 10.6804 3.09784 10.6367C3.18633 10.5895 3.22674 10.5863 3.29292 10.6211ZM3.69869 11.2855C3.7295 11.3281 3.75474 11.3739 3.75474 11.3873C3.75474 11.4484 3.97349 11.6527 4.17746 11.7821C4.41147 11.9306 4.50419 12.0307 4.47557 12.104C4.46113 12.141 4.45129 12.1381 4.4079 12.0838C4.37995 12.0489 4.27615 11.9738 4.17722 11.9169C3.97923 11.803 3.87754 11.7022 3.76563 11.509C3.72495 11.4388 3.66253 11.3424 3.62694 11.2947C3.57786 11.229 3.57195 11.2081 3.60244 11.2081C3.62456 11.2081 3.66784 11.2429 3.69869 11.2855ZM3.8316 11.2879C3.86456 11.3317 3.9431 11.3934 4.00609 11.4249C4.20432 11.5242 4.5065 11.7365 4.56542 11.8179C4.60748 11.876 4.62112 11.9327 4.61841 12.0385L4.6148 12.181L4.59691 12.055C4.57377 11.8919 4.48313 11.7983 4.2018 11.6473C4.08247 11.5832 3.95836 11.5065 3.92597 11.4768C3.85569 11.4124 3.72763 11.2502 3.72763 11.2256C3.72763 11.1848 3.77582 11.2137 3.8316 11.2879ZM3.66139 11.5213C3.77319 11.7252 3.90323 11.8982 4.12713 12.1408C4.16082 12.1773 4.18839 12.2144 4.18839 12.2232C4.18839 12.2319 4.24021 12.2551 4.30358 12.2747C4.36694 12.2942 4.43036 12.3202 4.44451 12.3323C4.48237 12.3647 4.29192 12.3592 4.19223 12.325C4.0671 12.2821 3.8368 11.9931 3.68855 11.6931C3.61835 11.551 3.54284 11.4017 3.52075 11.3614C3.49869 11.3211 3.49254 11.2881 3.50707 11.2881C3.52162 11.2881 3.59106 11.393 3.66139 11.5213ZM15.9049 12.5215C16.1315 12.6915 16.0566 12.7899 15.6666 12.8344C15.3633 12.8691 15.3003 12.8983 15.1038 13.0954C14.9711 13.2284 14.5995 13.4526 14.3805 13.5317C14.1563 13.6128 14.0268 13.586 14.0268 13.4585C14.0268 13.4162 14.0834 13.3624 14.2369 13.2589C14.3524 13.181 14.5445 13.0319 14.6638 12.9275C15.1158 12.532 15.3223 12.4279 15.6289 12.4412C15.7749 12.4475 15.826 12.4624 15.9049 12.5215ZM3.00628 16.4809C3.01376 16.4929 2.94435 16.5399 2.85204 16.5855C2.6495 16.6855 2.28374 16.9684 1.95202 17.2816C1.70937 17.5107 1.42506 17.8601 1.21135 18.1919C1.14999 18.2872 1.09952 18.3491 1.09919 18.3295C1.09841 18.2794 1.32982 17.6951 1.40348 17.5612C1.54987 17.2951 2.0384 16.7895 2.26406 16.6705C2.4163 16.5903 2.80458 16.4719 2.94682 16.4623C2.97202 16.4607 2.99877 16.469 3.00628 16.4809ZM4.94248 22.8809C5.08409 22.9519 5.18082 23.1074 5.25517 23.3834C5.32667 23.6489 5.31385 23.7617 5.20413 23.8324C5.02078 23.9506 4.54794 23.6699 4.39442 23.3517C4.33924 23.2374 4.33878 23.0638 4.39342 22.9599C4.47679 22.8014 4.71552 22.767 4.94248 22.8809ZM4.51455 22.8894C4.4498 22.9229 4.37946 23.0801 4.41402 23.1141C4.42334 23.1233 4.45262 23.1056 4.47907 23.0748C4.62898 22.9005 4.89827 23.0617 5.13876 23.4697L5.19375 23.563L5.18096 23.4458C5.16085 23.2612 5.03037 23.0426 4.88843 22.9557C4.74305 22.8667 4.6055 22.8423 4.51455 22.8894Z" fill="#F3F3F3"/>
<path d="M36.8906 18.125V13.9688C36.8906 13.5417 36.9297 12.8802 37.0078 11.9844L37.0391 11.6016L36.875 11.5859C36.7552 12.0391 36.6406 12.4453 36.5312 12.8047C36.4219 13.1641 36.3229 13.4766 36.2344 13.7422L34.1094 20H31.9844L29.7422 13.7422C29.6432 13.5026 29.5469 13.2344 29.4531 12.9375C29.3646 12.6354 29.2786 12.3073 29.1953 11.9531L29.1016 11.5859L28.9375 11.6016C28.9896 12.0755 29.026 12.5104 29.0469 12.9062C29.0729 13.2969 29.0859 13.651 29.0859 13.9688V18.1797C29.4818 18.3255 29.7734 18.5208 29.9609 18.7656L29.8047 20H26.6719L26.5078 18.7656C26.7057 18.5208 27 18.3255 27.3906 18.1797V10.7812C26.9531 10.625 26.6484 10.4297 26.4766 10.1953L26.6328 8.96094H30.2812L32.6172 15.4062C32.7682 15.7552 32.8906 16.0938 32.9844 16.4219C33.0833 16.7448 33.1536 17.0521 33.1953 17.3438L33.2422 17.6172H33.4688C33.5052 16.9714 33.6979 16.2344 34.0469 15.4062L36.2656 8.96094H39.8516L40.0156 10.1953C39.8438 10.4297 39.5391 10.625 39.1016 10.7812V18.1094C39.5182 18.276 39.8125 18.4635 39.9844 18.6719L39.8203 20H36.1719L36.0156 18.6875C36.1771 18.4792 36.4688 18.2917 36.8906 18.125ZM47.4219 17.0703L48.6094 17.2188V20H41.1797L41.0234 18.6719C41.1641 18.4896 41.4583 18.3125 41.9062 18.1406V10.8281C41.4635 10.6719 41.1693 10.4922 41.0234 10.2891L41.1797 8.96094H48.4766V11.7422L47.2969 11.8906C47.0469 11.6771 46.849 11.2812 46.7031 10.7031H44.2109V13.4531H46.4297C46.5599 13.1406 46.6927 12.9167 46.8281 12.7812L47.8359 12.8984V15.7422L46.8281 15.875C46.6979 15.7656 46.5651 15.5417 46.4297 15.2031H44.2109V18.2578H46.8281C46.9688 17.6953 47.1667 17.2995 47.4219 17.0703ZM55.6016 10.8516C55.2839 10.7109 54.8047 10.6406 54.1641 10.6406C53.5234 10.6406 53.0052 10.9167 52.6094 11.4688C52.2135 12.0208 52.0156 12.9922 52.0156 14.3828C52.0156 15.7682 52.2057 16.7526 52.5859 17.3359C52.9661 17.9193 53.5286 18.2109 54.2734 18.2109C55.4141 18.2109 56.4375 18.0391 57.3438 17.6953L57.9219 19.1172C56.7917 19.7891 55.4635 20.125 53.9375 20.125C52.4115 20.125 51.3099 19.6927 50.6328 18.8281C49.9557 17.974 49.6172 16.5625 49.6172 14.5938C49.6172 12.6302 50.0365 11.1797 50.875 10.2422C51.7135 9.29948 52.888 8.82812 54.3984 8.82812C55.6172 8.82812 56.776 9.16667 57.875 9.84375V10.2031C57.875 10.3229 57.8568 10.5078 57.8203 10.7578C57.7891 11.0026 57.7396 11.2604 57.6719 11.5312C57.6094 11.7969 57.5312 12.0234 57.4375 12.2109H55.9219C55.7708 11.9141 55.6641 11.4609 55.6016 10.8516ZM58.7734 10.2891L58.9297 8.96094H62.6797L62.8359 10.2891C62.6641 10.4922 62.3724 10.6719 61.9609 10.8281V18.1406C62.3724 18.3073 62.6641 18.4844 62.8359 18.6719L62.6797 20H58.9297L58.7734 18.6719C58.9141 18.4896 59.2083 18.3125 59.6562 18.1406V10.8281C59.2135 10.6719 58.9193 10.4922 58.7734 10.2891ZM68.4219 18.6719L68.2578 20H65.6016L62.0547 14.2422L64.7266 10.6875C64.4245 10.5417 64.2161 10.3984 64.1016 10.2578L64.2578 8.96094H67.9062L68.0703 10.2578C67.9193 10.4297 67.6406 10.599 67.2344 10.7656L64.4688 14.1797L67 17.9844C67.6823 18.1302 68.1562 18.3594 68.4219 18.6719Z" fill="#F3F3F3"/>
</svg>
