<svg width="20" height="20" viewBox="0 0 20 20" fill="none" xmlns="http://www.w3.org/2000/svg">
<path d="M14.1079 11.7692C14.8624 10.5822 15.305 9.17393 15.305 7.66003C15.305 3.43017 11.8798 0 7.655 0C3.42514 0 0 3.43017 0 7.66003C0 11.8899 3.42514 15.3201 7.64998 15.3201C9.18399 15.3201 10.6124 14.8674 11.8094 14.0929L12.1565 13.8514L17.6186 19.3135L19.3135 17.5884L13.8565 12.1263L14.1079 11.7692ZM11.9402 3.37987C13.0819 4.52158 13.7106 6.04051 13.7106 7.655C13.7106 9.2695 13.0819 10.7884 11.9402 11.9301C10.7985 13.0719 9.27956 13.7005 7.66506 13.7005C6.05057 13.7005 4.53164 13.0719 3.38993 11.9301C2.24822 10.7884 1.61952 9.2695 1.61952 7.655C1.61952 6.04051 2.24822 4.52158 3.38993 3.37987C4.53164 2.23816 6.05057 1.60946 7.66506 1.60946C9.27956 1.60946 10.7985 2.23816 11.9402 3.37987Z" fill="#A450DB"/>
</svg>
