<svg width="24" height="19" viewBox="0 0 24 19" fill="none" xmlns="http://www.w3.org/2000/svg">
<path d="M19.7815 0.630371H4.05045C1.88742 0.630371 0.117676 2.4455 0.117676 4.66398V14.748C0.117676 16.9665 1.88742 18.7816 4.05045 18.7816H19.7815C21.9446 18.7816 23.7143 16.9665 23.7143 14.748V4.66398C23.7143 2.4455 21.9446 0.630371 19.7815 0.630371ZM21.3547 6.47911L13.5874 11.8236C13.0958 12.1262 12.5059 12.3278 11.916 12.3278C11.3261 12.3278 10.7362 12.1262 10.2446 11.8236L2.47734 6.47911C2.08406 6.17659 1.98574 5.57155 2.2807 5.06735C2.57566 4.66398 3.16557 4.56314 3.65717 4.86566L11.4244 10.2102C11.7194 10.4119 12.211 10.4119 12.5059 10.2102L20.2731 4.86566C20.7647 4.56314 21.3546 4.66398 21.6496 5.16819C21.8462 5.57155 21.7479 6.17659 21.3547 6.47911Z" fill="#F8F8F8"/>
</svg>
