<svg width="22" height="26" viewBox="0 0 22 26" fill="none" xmlns="http://www.w3.org/2000/svg">
<path d="M21.7815 20.5714V21.7815H0V20.5714L2.42017 18.1513V10.8908C2.42017 7.1395 4.87664 3.83597 8.47059 2.77109V2.42017C8.47059 1.7783 8.72557 1.16272 9.17944 0.708851C9.63331 0.254981 10.2489 0 10.8908 0C11.5326 0 12.1482 0.254981 12.6021 0.708851C13.0559 1.16272 13.3109 1.7783 13.3109 2.42017V2.77109C16.9049 3.83597 19.3613 7.1395 19.3613 10.8908V18.1513L21.7815 20.5714ZM13.3109 22.9916C13.3109 23.6335 13.0559 24.249 12.6021 24.7029C12.1482 25.1568 11.5326 25.4118 10.8908 25.4118C10.2489 25.4118 9.63331 25.1568 9.17944 24.7029C8.72557 24.249 8.47059 23.6335 8.47059 22.9916" fill="#F8F8F8"/>
</svg>
