<svg width="22" height="22" viewBox="0 0 22 22" fill="none" xmlns="http://www.w3.org/2000/svg">
<path fill-rule="evenodd" clip-rule="evenodd" d="M10.0894 0.0316265C5.55286 0.424966 1.66772 3.59243 0.422284 7.91296C0.0896427 9.06678 -0.00198624 9.74427 3.24544e-05 11.0347C0.00195267 12.2586 0.0815678 12.8636 0.386587 13.9711C1.19859 16.9197 3.29464 19.4629 6.06561 20.8617C6.94517 21.3057 8.16678 21.695 9.27701 21.8851C10.1125 22.0281 11.7942 22.0397 12.6005 21.908C15.1168 21.4969 17.2227 20.4112 18.9311 18.6445C20.2612 17.269 21.1788 15.6391 21.656 13.8046C21.9408 12.7097 22.0023 12.2057 21.9999 10.9855C21.9977 9.81703 21.9218 9.19234 21.6607 8.19004C20.7129 4.55348 17.835 1.5778 14.1932 0.468867C12.9761 0.09824 11.3362 -0.0764791 10.0894 0.0316265ZM12.3234 1.64795C13.6311 1.83993 14.8559 2.27997 15.9592 2.95421C17.1992 3.71199 18.3934 4.93296 19.1498 6.21636C20.9653 9.29636 20.8629 13.1934 18.8883 16.1721C18.5416 16.6951 18.0206 17.3519 17.9524 17.3519C17.9319 17.3519 17.8739 17.1916 17.8235 16.9955C17.6067 16.1533 17.097 15.1663 16.4915 14.4158C15.4608 13.1386 13.9219 12.2397 12.2066 11.9129C11.6046 11.7983 10.396 11.7983 9.79399 11.9129C7.35713 12.3771 5.41894 13.9174 4.46912 16.1446C4.35312 16.4166 4.22023 16.7995 4.1737 16.9955C4.12722 17.1916 4.07154 17.3519 4.05002 17.3519C3.98129 17.3519 3.46687 16.7055 3.11118 16.1721C1.13508 13.2088 1.03282 9.30049 2.85072 6.21636C3.60212 4.94156 4.81166 3.70461 6.04006 2.95476C7.13025 2.28926 8.39563 1.8324 9.6709 1.64382C10.2822 1.55341 11.6943 1.55563 12.3234 1.64795ZM10.2864 3.21408C9.21295 3.4237 8.29169 4.04073 7.69933 4.94677C7.26166 5.61615 7.08815 6.22093 7.08815 7.07722C7.08815 7.9314 7.26206 8.53957 7.69563 9.20133C8.89168 11.027 11.3262 11.5515 13.134 10.3731C14.956 9.18555 15.48 6.74961 14.3012 4.94677C13.7465 4.0983 12.9612 3.53815 11.9365 3.26C11.5524 3.15573 10.7057 3.13218 10.2864 3.21408ZM11.5644 4.79275C12.8254 5.1207 13.6091 6.4106 13.2902 7.63309C13.0678 8.48559 12.4137 9.14081 11.5644 9.3617C10.3324 9.68213 9.04171 8.90322 8.71232 7.64051C8.27347 5.95831 9.87966 4.35457 11.5644 4.79275ZM12.3333 13.3354C12.9813 13.5041 13.4604 13.7121 13.9808 14.0507C15.0517 14.7475 15.8326 15.7547 16.2387 16.9628C16.3739 17.3651 16.5142 18.1325 16.5146 18.4713C16.5148 18.6784 16.5098 18.6845 16.1461 18.9215C13.7638 20.4744 10.7708 20.8658 8.05836 19.9793C7.44261 19.778 6.41696 19.2863 5.8603 18.9255L5.47162 18.6736L5.50112 18.2917C5.67679 16.0172 7.22739 14.0671 9.37917 13.4146C10.0126 13.2224 10.3956 13.1747 11.148 13.1942C11.7065 13.2087 11.9645 13.2394 12.3333 13.3354Z" fill="#F8F8F8"/>
</svg>
