<svg width="30" height="17" viewBox="0 0 30 17" fill="none" xmlns="http://www.w3.org/2000/svg">
<path d="M14.998 11.5544L4.41745 0.762918C3.99175 0.33218 3.38256 0.0623646 2.72328 0.0125631C2.064 -0.0372385 1.40836 0.137031 0.899945 0.497206C0.391528 0.857381 0.0717671 1.37411 0.0106833 1.93424C-0.0504006 2.49436 0.152172 3.05224 0.57404 3.48569L13.0762 16.2363C13.3113 16.4754 13.6052 16.6677 13.9372 16.7996C14.2693 16.9316 14.6314 17 14.998 17C15.3645 17 15.7266 16.9316 16.0587 16.7996C16.3908 16.6677 16.6847 16.4754 16.9197 16.2363L29.4219 3.48569C29.8457 3.05243 30.0499 2.49388 29.9896 1.93274C29.9293 1.37161 29.6093 0.853771 29.1 0.492991C28.5908 0.132211 27.9338 -0.0420087 27.2735 0.00860252C26.6132 0.0592137 26.0035 0.330519 25.5784 0.762918L14.998 11.5544Z" fill="#F8F8F8"/>
</svg>
