<svg width="46" height="45" viewBox="0 0 46 45" fill="none" xmlns="http://www.w3.org/2000/svg">
<path d="M11.75 3.75C7.62744 3.75 4.25 7.12744 4.25 11.25V33.75C4.25 37.8726 7.62744 41.25 11.75 41.25H34.25C38.3726 41.25 41.75 37.8726 41.75 33.75V11.25C41.75 7.12744 38.3726 3.75 34.25 3.75H11.75ZM11.75 7.5H34.25C36.3599 7.5 38 9.14006 38 11.25V33.75C38 35.8599 36.3599 37.5 34.25 37.5H11.75C9.64006 37.5 8 35.8599 8 33.75V11.25C8 9.14006 9.64006 7.5 11.75 7.5Z" fill="white"/>
<path d="M23 11.2493C22.5027 11.2493 22.0258 11.4468 21.6742 11.7984C21.3225 12.15 21.125 12.627 21.125 13.1243V20.6243H13.625C13.1277 20.6243 12.6508 20.8218 12.2992 21.1734C11.9475 21.525 11.75 22.002 11.75 22.4993C11.75 22.9965 11.9475 23.4734 12.2992 23.8251C12.6508 24.1767 13.1277 24.3743 13.625 24.3743H21.125V31.8743C21.125 32.3715 21.3225 32.8484 21.6742 33.2001C22.0258 33.5517 22.5027 33.7493 23 33.7493C23.4973 33.7493 23.9742 33.5517 24.3258 33.2001C24.6775 32.8484 24.875 32.3715 24.875 31.8743V24.3743H32.375C32.8723 24.3743 33.3492 24.1767 33.7008 23.8251C34.0525 23.4734 34.25 22.9965 34.25 22.4993C34.25 22.002 34.0525 21.525 33.7008 21.1734C33.3492 20.8218 32.8723 20.6243 32.375 20.6243H24.875V13.1243C24.875 12.627 24.6775 12.15 24.3258 11.7984C23.9742 11.4468 23.4973 11.2493 23 11.2493Z" fill="white"/>
</svg>
