<svg width="22" height="23" viewBox="0 0 22 23" fill="none" xmlns="http://www.w3.org/2000/svg">
<path d="M19.6421 2.09614H11.7853V1.31052C11.7853 1.10216 11.7025 0.902337 11.5552 0.755005C11.4078 0.607673 11.208 0.524902 10.9996 0.524902C10.7912 0.524902 10.5914 0.607673 10.444 0.755005C10.2967 0.902337 10.2139 1.10216 10.2139 1.31052V2.09614H2.35706C1.73193 2.09614 1.1324 2.34445 0.690366 2.78645C0.248332 3.22845 0 3.82792 0 4.453V17.0229C0 17.648 0.248332 18.2475 0.690366 18.6895C1.1324 19.1315 1.73193 19.3798 2.35706 19.3798H7.62115L6.40334 21.3203C6.34848 21.4079 6.31146 21.5055 6.2944 21.6075C6.27735 21.7095 6.28059 21.8138 6.30395 21.9145C6.32731 22.0152 6.37032 22.1104 6.43052 22.1944C6.49072 22.2785 6.56692 22.3499 6.65476 22.4044C6.74241 22.4593 6.84002 22.4963 6.94201 22.5133C7.044 22.5304 7.14835 22.5271 7.24907 22.5038C7.3498 22.4804 7.44493 22.4374 7.52901 22.3772C7.61308 22.317 7.68444 22.2408 7.739 22.153L9.46751 19.3798H12.571L14.2995 22.153C14.354 22.2408 14.4254 22.317 14.5095 22.3772C14.5935 22.4374 14.6887 22.4804 14.7894 22.5038C14.8901 22.5271 14.9945 22.5304 15.0965 22.5133C15.1985 22.4963 15.2961 22.4593 15.3837 22.4044C15.4716 22.3499 15.5478 22.2785 15.608 22.1944C15.6682 22.1104 15.7112 22.0152 15.7345 21.9145C15.7579 21.8138 15.7611 21.7095 15.7441 21.6075C15.727 21.5055 15.69 21.4079 15.6351 21.3203L14.378 19.3798H19.6421C20.2673 19.3798 20.8668 19.1315 21.3088 18.6895C21.7509 18.2475 21.9992 17.648 21.9992 17.0229V4.453C21.9992 3.82792 21.7509 3.22845 21.3088 2.78645C20.8668 2.34445 20.2673 2.09614 19.6421 2.09614ZM1.57137 4.453C1.57137 4.24464 1.65415 4.04482 1.80149 3.89748C1.94884 3.75015 2.14868 3.66738 2.35706 3.66738H19.6421C19.8505 3.66738 20.0504 3.75015 20.1977 3.89748C20.345 4.04482 20.4278 4.24464 20.4278 4.453V14.6661H18.8565V13.8804C18.8565 13.2554 18.6081 12.6559 18.1661 12.2139C17.7241 11.7719 17.1245 11.5236 16.4994 11.5236H14.928C14.3029 11.5236 13.7034 11.7719 13.2613 12.2139C12.8193 12.6559 12.571 13.2554 12.571 13.8804V14.6661H1.57137V4.453ZM17.2851 14.6661H14.1423V13.8804C14.1423 13.6721 14.2251 13.4723 14.3725 13.3249C14.5198 13.1776 14.7196 13.0948 14.928 13.0948H16.4994C16.7078 13.0948 16.9076 13.1776 17.055 13.3249C17.2023 13.4723 17.2851 13.6721 17.2851 13.8804V14.6661ZM20.4278 17.0229C20.4278 17.2313 20.345 17.4311 20.1977 17.5784C20.0504 17.7258 19.8505 17.8085 19.6421 17.8085H2.35706C2.14868 17.8085 1.94884 17.7258 1.80149 17.5784C1.65415 17.4311 1.57137 17.2313 1.57137 17.0229V16.2373H20.4278V17.0229Z" fill="white"/>
</svg>
