<svg width="30" height="39" viewBox="0 0 30 39" fill="none" xmlns="http://www.w3.org/2000/svg">
<path fill-rule="evenodd" clip-rule="evenodd" d="M15.9527 0.0281708C15.9132 0.0414495 15.6119 0.160414 15.2831 0.292476C14.149 0.747985 13.7281 0.91449 13.5612 0.973542C13.4692 1.00617 12.888 1.22924 12.2698 1.4693C10.1126 2.30694 8.22493 3.02259 7.77816 3.17214C7.47067 3.27506 7.27897 3.36928 7.17326 3.46944C7.08818 3.55011 6.86458 3.88774 6.67637 4.21975C6.48821 4.55177 6.18507 5.05795 6.0027 5.34459C5.32381 6.41178 4.91793 7.03597 4.55577 7.56989C4.35101 7.87176 4.13875 8.20323 4.08403 8.30651C4.02931 8.4098 3.80944 8.756 3.59541 9.07577C2.78786 10.2823 2.41704 10.8788 2.41704 10.9711C2.41704 11.1618 2.69832 11.207 3.06307 11.075C3.17929 11.033 3.30403 11.0093 3.34029 11.0225C3.40825 11.0472 4.8856 12.6389 5.01718 12.8292C5.0652 12.8986 5.08758 13.0234 5.08127 13.1868C5.06945 13.4923 5.16698 13.6563 5.42066 13.7579C5.51804 13.7968 5.64967 13.8521 5.71319 13.8807C5.79593 13.9179 5.97912 14.2077 6.35888 14.9022C6.93594 15.9574 7.00075 16.0311 7.43896 16.1307C7.90749 16.2372 8.2664 16.0132 8.32982 15.5749C8.40305 15.0687 8.24024 14.8658 7.17293 14.1331C6.76318 13.8518 6.38638 13.5715 6.33563 13.5104C6.28049 13.444 6.24337 13.3285 6.24337 13.2234C6.24337 13.0876 6.20736 13.0104 6.08496 12.8839C5.95118 12.7455 5.88752 12.7165 5.67583 12.6972L5.42511 12.6744L4.63851 11.7951C4.2059 11.3114 3.85192 10.8985 3.85192 10.8776C3.85192 10.801 3.99861 10.7423 5.49537 10.2199C6.49022 9.87263 7.05656 9.69688 7.12678 9.71356C7.24085 9.74071 8.68266 11.3023 8.68266 11.3987C8.68266 11.4392 8.49842 11.4585 8.00109 11.4698C7.23549 11.4873 7.08277 11.5358 6.87266 11.8278C6.77432 11.9644 6.76289 12.0236 6.7814 12.3012C6.81856 12.8594 7.18527 13.4037 8.0548 14.1912C8.33819 14.4478 8.58422 14.6941 8.60149 14.7384C8.61871 14.7827 8.60015 14.9524 8.56021 15.1155C8.52032 15.2787 8.44447 15.7115 8.39171 16.0774C8.23885 17.1374 8.02123 17.8323 7.58029 18.6686C7.07115 19.6343 6.52671 20.1981 5.02373 21.3163C4.03835 22.0494 3.23133 22.7108 2.77059 23.1631C0.342357 25.5467 -0.513689 28.3752 0.297254 31.3355C0.662764 32.6698 1.44467 34.0592 2.46219 35.1823C3.72249 36.5734 6.11792 38.0028 7.93322 38.4469C8.72857 38.6415 9.10681 38.6661 10.9306 38.6415C12.3901 38.6218 12.7025 38.6053 13.1547 38.5234C14.32 38.3123 14.6463 38.2749 15.3309 38.274C16.1094 38.2731 16.3206 38.3135 17.0588 38.6046C17.6262 38.8283 18.0138 38.9017 18.4471 38.8672C18.9818 38.8247 19.1766 38.6417 19.0741 38.2779C19.0294 38.1193 19.033 38.0752 19.0963 38.0089C19.2246 37.8745 19.408 37.9166 19.8554 38.1832C20.5901 38.6208 20.6605 38.6393 20.8619 38.4485C20.9739 38.3424 20.9825 38.3064 20.9673 38.0078L20.9508 37.6826L21.2813 37.6253C21.6641 37.5588 21.8221 37.4753 21.864 37.3171C21.9114 37.1383 21.8546 37.0127 21.6221 36.7829C21.5028 36.6649 21.4052 36.5484 21.4052 36.5241C21.4052 36.4997 21.5074 36.4355 21.6324 36.3814C21.7573 36.3273 21.8744 36.2758 21.8924 36.267C21.9105 36.2581 21.9536 36.3461 21.9882 36.4623C22.027 36.5924 22.1009 36.7088 22.1803 36.765L22.3093 36.8563L22.5867 36.753C23.1097 36.5582 23.1667 36.566 23.7094 36.9085C23.9739 37.0753 24.2601 37.2226 24.3456 37.2357C24.6645 37.2847 24.8253 37.0886 24.8773 36.5871C24.926 36.1178 24.9103 36.1299 25.4987 36.1093C25.985 36.0922 26.0125 36.0858 26.1217 35.9656C26.324 35.7428 26.2829 35.6372 25.6953 34.8721C24.935 33.8821 24.7863 33.4708 25.0509 33.0905C25.219 32.8488 25.4548 32.244 25.5903 31.7073C25.94 30.3218 25.9398 28.9163 25.5898 27.5202C25.3791 26.6803 24.8214 25.1795 24.4887 24.5574C24.4237 24.4359 24.3706 24.3192 24.3706 24.298C24.3706 24.2767 24.5485 24.1448 24.7661 24.0048C25.5603 23.4936 26.7329 22.383 27.5703 21.3489C28.4396 20.2755 29.2043 19.0145 29.5109 18.1488C29.9051 17.0357 30.0773 15.6757 29.9674 14.5445C29.7157 11.9531 28.5547 9.60901 26.9181 8.38759C25.893 7.62259 24.915 7.20189 23.2645 6.81608C22.507 6.63902 20.4543 6.4993 19.6116 6.56746C18.4358 6.66254 18.0252 6.71275 17.7224 6.7985C17.5514 6.8469 17.092 6.95793 16.7014 7.04531C16.3109 7.13264 15.9489 7.22568 15.8969 7.25206C15.8449 7.27843 15.6867 7.32856 15.5452 7.36346C15.2234 7.4429 14.4358 7.75987 14.1147 7.93924C13.8191 8.10434 12.7787 8.8083 12.5807 8.9772C12.5018 9.04455 12.2005 9.28869 11.9111 9.51977C11.2508 10.0471 10.8596 10.4167 10.3824 10.9643C9.84758 11.5779 9.59141 11.7305 9.59141 11.4355C9.59141 11.2776 9.90569 10.8902 10.5117 10.3011C11.1697 9.66153 12.4725 8.68865 13.5397 8.03999C13.7751 7.89687 14.1259 7.68051 14.319 7.55924C14.5122 7.43792 14.6927 7.33867 14.7202 7.33867C14.7476 7.33867 15.014 7.23216 15.3122 7.10201L15.8543 6.86535L15.8851 6.67147C15.96 6.19815 15.7431 5.78433 15.035 5.04952C14.5745 4.57157 14.3265 4.2459 14.3265 4.11928C14.3265 3.97104 14.4886 3.66472 15.3211 2.24019C16.231 0.682997 16.2864 0.57228 16.287 0.311827C16.2876 0.0341528 16.1874 -0.050867 15.9527 0.0281708ZM7.52993 5.52905C7.33622 5.90044 6.99869 6.40698 6.50514 7.06675C6.29072 7.35339 5.93425 7.87947 5.71299 8.23577C5.49174 8.59212 5.26766 8.95123 5.21505 9.03381C5.11039 9.19809 4.7622 9.57665 4.73838 9.55204C4.71724 9.53015 5.45515 8.25549 5.78436 7.74523C6.05646 7.32353 6.26556 7.03375 7.03681 6.0098C7.24965 5.72727 7.47564 5.40849 7.53901 5.3014C7.71201 5.00923 7.70465 5.19409 7.52993 5.52905ZM27.097 10.3525C27.1657 10.431 27.1447 10.5667 26.9901 11.0436C26.8736 11.403 26.779 11.4627 26.6414 11.2636C26.5194 11.0872 26.5013 10.8499 26.5923 10.6239C26.7129 10.3248 26.9575 10.1933 27.097 10.3525ZM23.3577 12.0731C23.8233 12.2878 23.8797 12.3608 23.6774 12.4864C23.5399 12.5718 23.4055 12.5602 22.8961 12.4188C22.6319 12.3455 22.5071 12.3316 22.3893 12.3624C22.1178 12.4335 21.9631 12.2491 22.1585 12.0873C22.4933 11.81 22.7799 11.8066 23.3577 12.0731ZM16.2478 12.4442C16.4391 12.6082 16.292 12.9561 15.8448 13.3974C15.5368 13.7013 15.2486 13.8283 14.7244 13.8911C14.4993 13.9182 14.4404 13.904 14.0787 13.7361C13.6488 13.5366 13.2743 13.2339 13.2743 13.0859C13.2743 12.9744 13.3684 12.9836 14.0133 13.158C14.5468 13.3023 14.7009 13.2702 15.0878 12.9343C15.3512 12.7056 15.7172 12.4524 15.857 12.4021C15.9959 12.3522 16.1613 12.37 16.2478 12.4442ZM5.81104 12.9574C5.85916 12.9818 5.92215 13.066 5.95104 13.1445C6.06229 13.4469 5.75126 13.7022 5.49365 13.52C5.42339 13.4703 5.34495 13.3981 5.31931 13.3596C5.2468 13.2506 5.32233 13.0582 5.46677 12.9839C5.62293 12.9037 5.69425 12.8981 5.81104 12.9574ZM6.52709 14.087C6.58148 14.1594 6.626 14.2373 6.626 14.2601C6.626 14.364 7.01203 14.7112 7.37199 14.9313C7.78495 15.1837 7.94858 15.3539 7.89807 15.4786C7.87257 15.5415 7.85521 15.5365 7.77864 15.4443C7.72933 15.3849 7.54614 15.2571 7.37156 15.1604C7.02217 14.9668 6.84272 14.7955 6.64523 14.467C6.57344 14.3476 6.46329 14.1837 6.40049 14.1026C6.31387 13.9909 6.30344 13.9554 6.35725 13.9554C6.39628 13.9554 6.47266 14.0146 6.52709 14.087ZM6.76165 14.091C6.81981 14.1655 6.95842 14.2704 7.06957 14.324C7.41939 14.4928 7.95264 14.8537 8.05662 14.9921C8.13085 15.0908 8.15491 15.1872 8.15013 15.3673L8.14377 15.6095L8.1122 15.3952C8.07135 15.1179 7.91141 14.9589 7.41495 14.702C7.20435 14.5931 6.98534 14.4627 6.92819 14.4123C6.80417 14.3027 6.57818 14.027 6.57818 13.9851C6.57818 13.9157 6.66322 13.9648 6.76165 14.091ZM6.46128 14.4879C6.65858 14.8345 6.88806 15.1286 7.28318 15.5411C7.34263 15.6031 7.39127 15.6662 7.39127 15.6811C7.39127 15.6961 7.48272 15.7355 7.59454 15.7688C7.70637 15.802 7.81829 15.8461 7.84326 15.8667C7.91007 15.9217 7.57398 15.9124 7.39806 15.8542C7.17723 15.7813 6.77083 15.2901 6.50921 14.78C6.38533 14.5383 6.25208 14.2845 6.2131 14.2159C6.17416 14.1474 6.16331 14.0913 6.18894 14.0913C6.21463 14.0913 6.33716 14.2698 6.46128 14.4879ZM28.0675 16.1884C28.4674 16.4775 28.3352 16.6448 27.6469 16.7205C27.1117 16.7793 27.0005 16.829 26.6537 17.164C26.4196 17.3902 25.7639 17.7714 25.3774 17.906C24.9816 18.0438 24.7532 17.9983 24.7532 17.7815C24.7532 17.7095 24.8531 17.6181 25.1239 17.4421C25.3278 17.3097 25.6668 17.0562 25.8772 16.8787C26.6749 16.2062 27.0393 16.0292 27.5804 16.0518C27.8381 16.0625 27.9282 16.0878 28.0675 16.1884ZM5.3052 22.9202C5.3184 22.9405 5.19591 23.0205 5.03301 23.098C4.67558 23.2679 4.03013 23.7489 3.44475 24.2814C3.01653 24.6709 2.5148 25.2651 2.13767 25.8292C2.02939 25.9912 1.94033 26.0964 1.93975 26.0631C1.93837 25.9779 2.34673 24.9845 2.47673 24.7568C2.73506 24.3045 3.59718 23.4448 3.9954 23.2425C4.26406 23.1061 4.94926 22.9048 5.20027 22.8886C5.24475 22.8857 5.29195 22.9 5.3052 22.9202ZM8.72202 33.8014C8.97193 33.9221 9.14263 34.1864 9.27382 34.6558C9.4 35.1071 9.37737 35.299 9.18376 35.4191C8.8602 35.62 8.02577 35.1428 7.75487 34.6019C7.65749 34.4074 7.65667 34.1123 7.7531 33.9357C7.90022 33.6662 8.3215 33.6078 8.72202 33.8014ZM7.96685 33.8158C7.85258 33.8727 7.72847 34.14 7.78945 34.1979C7.8059 34.2134 7.85756 34.1834 7.90424 34.131C8.16878 33.8346 8.64401 34.1087 9.0684 34.8025L9.16544 34.9611L9.14287 34.7619C9.10738 34.4479 8.87713 34.0763 8.62665 33.9285C8.37009 33.7773 8.12736 33.7357 7.96685 33.8158Z" fill="#F3F3F3"/>
</svg>
