<svg width="11" height="10" viewBox="0 0 11 10" fill="none" xmlns="http://www.w3.org/2000/svg">
<path id="image 19 (Traced)" fill-rule="evenodd" clip-rule="evenodd" d="M2.23584 0.0254359C1.91213 0.0489976 1.50634 0.126423 1.21736 0.219773C0.973444 0.298584 0.940493 0.34617 0.928915 0.63633L0.920817 0.838765L0.531159 0.839363C0.112673 0.840016 0.0842975 0.848657 0.0258488 0.993235C-0.0107327 1.08376 -0.00746764 9.74082 0.0291998 9.83409C0.043871 9.87146 0.0914721 9.92407 0.134927 9.951L0.213976 10L0.489186 9.85143C1.94566 9.06522 3.55217 8.89303 5.20442 9.34603L5.49868 9.42669L5.78439 9.34783C6.13614 9.25072 6.57011 9.16512 6.89713 9.12832C7.39061 9.07277 8.29389 9.10699 8.72129 9.1974C9.43582 9.34856 9.96772 9.5423 10.5291 9.85586C10.8044 10.0096 10.8599 10.0132 10.9465 9.88314L10.9999 9.80275V5.42812C10.9999 0.671061 11.007 0.94304 10.8824 0.871241C10.8454 0.849908 10.6937 0.838765 10.4404 0.838765H10.0548V0.63315C10.0548 0.401989 10.0364 0.339647 9.9521 0.285268C9.79781 0.185721 9.21242 0.0622053 8.71987 0.0253001C7.47099 -0.0682676 6.4284 0.319238 5.66281 1.16154L5.49178 1.34971L5.33745 1.16738C4.88145 0.628612 4.21843 0.247194 3.47097 0.0936482C3.2694 0.0522317 2.69836 -0.00728419 2.57953 0.000732788C2.54999 0.00271665 2.39533 0.0138588 2.23584 0.0254359ZM3.42357 0.645271C4.13588 0.817704 4.6706 1.14029 5.10354 1.65878L5.28609 1.87739V5.23069C5.28609 7.075 5.28106 8.58398 5.27492 8.58398C5.26877 8.58398 5.22287 8.55124 5.17288 8.51121C4.82017 8.22868 4.21328 7.96945 3.62999 7.85218C2.97737 7.72095 2.38775 7.70945 1.52161 7.81101L1.35513 7.83055V4.28403V0.737507L1.53235 0.694242C1.68926 0.655951 1.89584 0.617469 2.12844 0.583255C2.16979 0.577167 2.42594 0.575999 2.69767 0.580646C3.08647 0.587331 3.24111 0.601082 3.42357 0.645271ZM9.18634 0.633096C9.31712 0.657527 9.47178 0.692394 9.53003 0.710602L9.63591 0.743649L9.64137 4.2871L9.6468 7.83058L9.48026 7.81134C8.99211 7.75503 8.80839 7.74236 8.47359 7.74196C7.48781 7.74079 6.61941 7.97798 5.93587 8.43514L5.7157 8.58238V5.23044V1.8785L5.86069 1.69827C6.36282 1.07408 6.9492 0.756231 7.91746 0.583309C8.07042 0.555997 8.96062 0.590918 9.18634 0.633096ZM0.947002 4.81494V8.24762L0.992025 8.30877C1.06083 8.40217 1.12164 8.42025 1.27248 8.39207C1.5964 8.33154 2.14893 8.28532 2.54731 8.28543C3.13779 8.28556 3.63526 8.36725 4.10465 8.54115L4.28724 8.60882L4.08317 8.58961C3.76021 8.5592 2.82812 8.56988 2.56879 8.60697C1.90156 8.70234 1.18075 8.92325 0.576461 9.21752L0.431467 9.28812V5.3352V1.38229H0.689234H0.947002V4.81494ZM10.5703 5.3352V9.28812L10.4253 9.21844C9.7255 8.88208 8.94885 8.66027 8.19853 8.58246C7.90356 8.55186 7.09329 8.56113 6.81121 8.59833C6.73048 8.60899 6.7429 8.60002 6.88639 8.54398C7.12747 8.44984 7.54928 8.34755 7.85229 8.30972C8.17587 8.26934 9.12626 8.29347 9.48555 8.35119C9.79302 8.4006 9.91376 8.40389 9.97208 8.3644C10.0792 8.29189 10.0763 8.39212 10.0763 4.7666V1.38229H10.3233H10.5703V5.3352Z" fill="#F1F1F1"/>
</svg>
