<svg width="25" height="32" viewBox="0 0 25 32" fill="none" xmlns="http://www.w3.org/2000/svg">
<path id="image 17 (Traced)" fill-rule="evenodd" clip-rule="evenodd" d="M3.81181 0.495535C1.96482 0.958595 0.862431 2.31887 0.856225 4.14289C0.843235 7.91379 6.13869 9.15594 7.95508 5.80807C8.96279 3.95083 8.07776 1.51532 6.10737 0.722618C5.46193 0.462877 4.37181 0.355172 3.81181 0.495535ZM9.66221 1.0574C9.57316 1.21764 9.51283 2.47688 9.51283 4.17444C9.51283 6.5784 9.54819 7.05661 9.73957 7.24102C10.078 7.56678 15.8755 7.56678 16.2139 7.24102C16.4053 7.05661 16.4407 6.5784 16.4407 4.17444C16.4407 2.47688 16.3803 1.21764 16.2913 1.0574C16.1506 0.804195 15.9583 0.78863 12.9767 0.78863C9.99518 0.78863 9.80294 0.804195 9.66221 1.0574ZM18.0333 1.0574C17.9443 1.21764 17.884 2.47688 17.884 4.17444C17.884 6.5784 17.9193 7.05661 18.1107 7.24102C18.3024 7.42544 18.8026 7.45935 21.3357 7.45935C24.0572 7.45935 24.3561 7.43587 24.5729 7.20517C24.7786 6.98629 24.8118 6.56061 24.8118 4.13872C24.8118 2.46576 24.7513 1.21736 24.6624 1.0574C24.5217 0.804195 24.3294 0.78863 21.3479 0.78863C18.3663 0.78863 18.1741 0.804195 18.0333 1.0574ZM1.29109 9.11786C1.20204 9.2781 1.14171 10.5373 1.14171 12.2349C1.14171 14.6389 1.17707 15.1171 1.36845 15.3015C1.7069 15.6272 7.50434 15.6272 7.84279 15.3015C8.03417 15.1171 8.06954 14.6389 8.06954 12.2349C8.06954 10.5373 8.0092 9.2781 7.92015 9.11786C7.77943 8.86465 7.58719 8.84909 4.60562 8.84909C1.62406 8.84909 1.43181 8.86465 1.29109 9.11786ZM9.66221 9.11786C9.57316 9.2781 9.51283 10.5373 9.51283 12.2349C9.51283 14.6389 9.54819 15.1171 9.73957 15.3015C10.078 15.6272 15.8755 15.6272 16.2139 15.3015C16.4053 15.1171 16.4407 14.6389 16.4407 12.2349C16.4407 10.5373 16.3803 9.2781 16.2913 9.11786C16.1506 8.86465 15.9583 8.84909 12.9767 8.84909C9.99518 8.84909 9.80294 8.86465 9.66221 9.11786ZM1.36845 17.1279C1.03014 17.4538 1.03014 23.036 1.36845 23.3619C1.7069 23.6877 7.50434 23.6877 7.84279 23.3619C8.03417 23.1775 8.06954 22.6993 8.06954 20.2953C8.06954 18.5978 8.0092 17.3386 7.92015 17.1783C7.77958 16.9254 7.58805 16.9095 4.68298 16.9095C2.06845 16.9095 1.56055 16.943 1.36845 17.1279ZM9.66221 17.1783C9.57316 17.3386 9.51283 18.5978 9.51283 20.2953C9.51283 22.6993 9.54819 23.1775 9.73957 23.3619C10.078 23.6877 15.8755 23.6877 16.2139 23.3619C16.4053 23.1775 16.4407 22.6993 16.4407 20.2953C16.4407 18.5978 16.3803 17.3386 16.2913 17.1783C16.1506 16.9251 15.9583 16.9095 12.9767 16.9095C9.99518 16.9095 9.80294 16.9251 9.66221 17.1783ZM18.0333 17.1783C17.9443 17.3386 17.884 18.5978 17.884 20.2953C17.884 22.6993 17.9193 23.1775 18.1107 23.3619C18.4492 23.6877 24.2466 23.6877 24.585 23.3619C24.9233 23.036 24.9233 17.4538 24.585 17.1279C24.3929 16.943 23.885 16.9095 21.2705 16.9095C18.3654 16.9095 18.1739 16.9254 18.0333 17.1783ZM1.36845 25.1883C1.03014 25.5142 1.03014 31.0965 1.36845 31.4224C1.7069 31.7481 7.50434 31.7481 7.84279 31.4224C8.03417 31.238 8.06954 30.7598 8.06954 28.3558C8.06954 26.6582 8.0092 25.399 7.92015 25.2388C7.77958 24.9858 7.58805 24.97 4.68298 24.97C2.06845 24.97 1.56055 25.0035 1.36845 25.1883ZM9.73957 25.1883C9.40127 25.5142 9.40127 31.0965 9.73957 31.4224C10.078 31.7481 15.8755 31.7481 16.2139 31.4224C16.5522 31.0965 16.5522 25.5142 16.2139 25.1883C16.0221 25.0038 15.521 24.97 12.9767 24.97C10.4325 24.97 9.93139 25.0038 9.73957 25.1883Z" fill="#F1F1F1"/>
</svg>
